G04 #@! TF.GenerationSoftware,KiCad,Pcbnew,5.0.2-bee76a0~70~ubuntu18.10.1*
G04 #@! TF.CreationDate,2019-04-28T23:28:47+02:00*
G04 #@! TF.ProjectId,carte_RouleMaPoule,63617274-655f-4526-9f75-6c654d61506f,A*
G04 #@! TF.SameCoordinates,Original*
G04 #@! TF.FileFunction,Soldermask,Bot*
G04 #@! TF.FilePolarity,Negative*
%FSLAX46Y46*%
G04 Gerber Fmt 4.6, Leading zero omitted, Abs format (unit mm)*
G04 Created by KiCad (PCBNEW 5.0.2-bee76a0~70~ubuntu18.10.1) date dim. 28 avril 2019 23:28:47 CEST*
%MOMM*%
%LPD*%
G01*
G04 APERTURE LIST*
G04 #@! TA.AperFunction,NonConductor*
%ADD10C,0.100000*%
G04 #@! TD*
G04 APERTURE END LIST*
D10*
G36*
X111870442Y-132455518D02*
X111936627Y-132462037D01*
X112049853Y-132496384D01*
X112106467Y-132513557D01*
X112245087Y-132587652D01*
X112262991Y-132597222D01*
X112298729Y-132626552D01*
X112400186Y-132709814D01*
X112483448Y-132811271D01*
X112512778Y-132847009D01*
X112512779Y-132847011D01*
X112596443Y-133003533D01*
X112596443Y-133003534D01*
X112647963Y-133173373D01*
X112665359Y-133350000D01*
X112647963Y-133526627D01*
X112613616Y-133639853D01*
X112596443Y-133696467D01*
X112522348Y-133835087D01*
X112512778Y-133852991D01*
X112483448Y-133888729D01*
X112400186Y-133990186D01*
X112298729Y-134073448D01*
X112262991Y-134102778D01*
X112262989Y-134102779D01*
X112106467Y-134186443D01*
X112049853Y-134203616D01*
X111936627Y-134237963D01*
X111870443Y-134244481D01*
X111804260Y-134251000D01*
X111715740Y-134251000D01*
X111649557Y-134244481D01*
X111583373Y-134237963D01*
X111470147Y-134203616D01*
X111413533Y-134186443D01*
X111257011Y-134102779D01*
X111257009Y-134102778D01*
X111221271Y-134073448D01*
X111119814Y-133990186D01*
X111036552Y-133888729D01*
X111007222Y-133852991D01*
X110997652Y-133835087D01*
X110923557Y-133696467D01*
X110906384Y-133639853D01*
X110872037Y-133526627D01*
X110854641Y-133350000D01*
X110872037Y-133173373D01*
X110923557Y-133003534D01*
X110923557Y-133003533D01*
X111007221Y-132847011D01*
X111007222Y-132847009D01*
X111036552Y-132811271D01*
X111119814Y-132709814D01*
X111221271Y-132626552D01*
X111257009Y-132597222D01*
X111274913Y-132587652D01*
X111413533Y-132513557D01*
X111470147Y-132496384D01*
X111583373Y-132462037D01*
X111649558Y-132455518D01*
X111715740Y-132449000D01*
X111804260Y-132449000D01*
X111870442Y-132455518D01*
X111870442Y-132455518D01*
G37*
G36*
X86470442Y-132455518D02*
X86536627Y-132462037D01*
X86649853Y-132496384D01*
X86706467Y-132513557D01*
X86845087Y-132587652D01*
X86862991Y-132597222D01*
X86898729Y-132626552D01*
X87000186Y-132709814D01*
X87083448Y-132811271D01*
X87112778Y-132847009D01*
X87112779Y-132847011D01*
X87196443Y-133003533D01*
X87196443Y-133003534D01*
X87247963Y-133173373D01*
X87265359Y-133350000D01*
X87247963Y-133526627D01*
X87213616Y-133639853D01*
X87196443Y-133696467D01*
X87122348Y-133835087D01*
X87112778Y-133852991D01*
X87083448Y-133888729D01*
X87000186Y-133990186D01*
X86898729Y-134073448D01*
X86862991Y-134102778D01*
X86862989Y-134102779D01*
X86706467Y-134186443D01*
X86649853Y-134203616D01*
X86536627Y-134237963D01*
X86470443Y-134244481D01*
X86404260Y-134251000D01*
X86315740Y-134251000D01*
X86249557Y-134244481D01*
X86183373Y-134237963D01*
X86070147Y-134203616D01*
X86013533Y-134186443D01*
X85857011Y-134102779D01*
X85857009Y-134102778D01*
X85821271Y-134073448D01*
X85719814Y-133990186D01*
X85636552Y-133888729D01*
X85607222Y-133852991D01*
X85597652Y-133835087D01*
X85523557Y-133696467D01*
X85506384Y-133639853D01*
X85472037Y-133526627D01*
X85454641Y-133350000D01*
X85472037Y-133173373D01*
X85523557Y-133003534D01*
X85523557Y-133003533D01*
X85607221Y-132847011D01*
X85607222Y-132847009D01*
X85636552Y-132811271D01*
X85719814Y-132709814D01*
X85821271Y-132626552D01*
X85857009Y-132597222D01*
X85874913Y-132587652D01*
X86013533Y-132513557D01*
X86070147Y-132496384D01*
X86183373Y-132462037D01*
X86249558Y-132455518D01*
X86315740Y-132449000D01*
X86404260Y-132449000D01*
X86470442Y-132455518D01*
X86470442Y-132455518D01*
G37*
G36*
X86470442Y-129915518D02*
X86536627Y-129922037D01*
X86649853Y-129956384D01*
X86706467Y-129973557D01*
X86814386Y-130031242D01*
X86862991Y-130057222D01*
X86876537Y-130068339D01*
X87000186Y-130169814D01*
X87083448Y-130271271D01*
X87112778Y-130307009D01*
X87112779Y-130307011D01*
X87196443Y-130463533D01*
X87196443Y-130463534D01*
X87247963Y-130633373D01*
X87265359Y-130810000D01*
X87247963Y-130986627D01*
X87213616Y-131099853D01*
X87196443Y-131156467D01*
X87122348Y-131295087D01*
X87112778Y-131312991D01*
X87083448Y-131348729D01*
X87000186Y-131450186D01*
X86898729Y-131533448D01*
X86862991Y-131562778D01*
X86862989Y-131562779D01*
X86706467Y-131646443D01*
X86649853Y-131663616D01*
X86536627Y-131697963D01*
X86470443Y-131704481D01*
X86404260Y-131711000D01*
X86315740Y-131711000D01*
X86249557Y-131704481D01*
X86183373Y-131697963D01*
X86070147Y-131663616D01*
X86013533Y-131646443D01*
X85857011Y-131562779D01*
X85857009Y-131562778D01*
X85821271Y-131533448D01*
X85719814Y-131450186D01*
X85636552Y-131348729D01*
X85607222Y-131312991D01*
X85597652Y-131295087D01*
X85523557Y-131156467D01*
X85506384Y-131099853D01*
X85472037Y-130986627D01*
X85454641Y-130810000D01*
X85472037Y-130633373D01*
X85523557Y-130463534D01*
X85523557Y-130463533D01*
X85607221Y-130307011D01*
X85607222Y-130307009D01*
X85636552Y-130271271D01*
X85719814Y-130169814D01*
X85843463Y-130068339D01*
X85857009Y-130057222D01*
X85905614Y-130031242D01*
X86013533Y-129973557D01*
X86070147Y-129956384D01*
X86183373Y-129922037D01*
X86249558Y-129915518D01*
X86315740Y-129909000D01*
X86404260Y-129909000D01*
X86470442Y-129915518D01*
X86470442Y-129915518D01*
G37*
G36*
X111870442Y-129915518D02*
X111936627Y-129922037D01*
X112049853Y-129956384D01*
X112106467Y-129973557D01*
X112214386Y-130031242D01*
X112262991Y-130057222D01*
X112276537Y-130068339D01*
X112400186Y-130169814D01*
X112483448Y-130271271D01*
X112512778Y-130307009D01*
X112512779Y-130307011D01*
X112596443Y-130463533D01*
X112596443Y-130463534D01*
X112647963Y-130633373D01*
X112665359Y-130810000D01*
X112647963Y-130986627D01*
X112613616Y-131099853D01*
X112596443Y-131156467D01*
X112522348Y-131295087D01*
X112512778Y-131312991D01*
X112483448Y-131348729D01*
X112400186Y-131450186D01*
X112298729Y-131533448D01*
X112262991Y-131562778D01*
X112262989Y-131562779D01*
X112106467Y-131646443D01*
X112049853Y-131663616D01*
X111936627Y-131697963D01*
X111870443Y-131704481D01*
X111804260Y-131711000D01*
X111715740Y-131711000D01*
X111649557Y-131704481D01*
X111583373Y-131697963D01*
X111470147Y-131663616D01*
X111413533Y-131646443D01*
X111257011Y-131562779D01*
X111257009Y-131562778D01*
X111221271Y-131533448D01*
X111119814Y-131450186D01*
X111036552Y-131348729D01*
X111007222Y-131312991D01*
X110997652Y-131295087D01*
X110923557Y-131156467D01*
X110906384Y-131099853D01*
X110872037Y-130986627D01*
X110854641Y-130810000D01*
X110872037Y-130633373D01*
X110923557Y-130463534D01*
X110923557Y-130463533D01*
X111007221Y-130307011D01*
X111007222Y-130307009D01*
X111036552Y-130271271D01*
X111119814Y-130169814D01*
X111243463Y-130068339D01*
X111257009Y-130057222D01*
X111305614Y-130031242D01*
X111413533Y-129973557D01*
X111470147Y-129956384D01*
X111583373Y-129922037D01*
X111649558Y-129915518D01*
X111715740Y-129909000D01*
X111804260Y-129909000D01*
X111870442Y-129915518D01*
X111870442Y-129915518D01*
G37*
G36*
X148086242Y-128893404D02*
X148123339Y-128904657D01*
X148157520Y-128922927D01*
X148187482Y-128947518D01*
X148212073Y-128977480D01*
X148230343Y-129011661D01*
X148241596Y-129048758D01*
X148246000Y-129093473D01*
X148246000Y-129986527D01*
X148241596Y-130031242D01*
X148230343Y-130068339D01*
X148212073Y-130102520D01*
X148187482Y-130132482D01*
X148157520Y-130157073D01*
X148123339Y-130175343D01*
X148086242Y-130186596D01*
X148041527Y-130191000D01*
X146598473Y-130191000D01*
X146553758Y-130186596D01*
X146516661Y-130175343D01*
X146482480Y-130157073D01*
X146452518Y-130132482D01*
X146427927Y-130102520D01*
X146409657Y-130068339D01*
X146398404Y-130031242D01*
X146394000Y-129986527D01*
X146394000Y-129093473D01*
X146398404Y-129048758D01*
X146409657Y-129011661D01*
X146427927Y-128977480D01*
X146452518Y-128947518D01*
X146482480Y-128922927D01*
X146516661Y-128904657D01*
X146553758Y-128893404D01*
X146598473Y-128889000D01*
X148041527Y-128889000D01*
X148086242Y-128893404D01*
X148086242Y-128893404D01*
G37*
G36*
X86470442Y-127375518D02*
X86536627Y-127382037D01*
X86636661Y-127412382D01*
X86706467Y-127433557D01*
X86845087Y-127507652D01*
X86862991Y-127517222D01*
X86865157Y-127519000D01*
X87000186Y-127629814D01*
X87083448Y-127731271D01*
X87112778Y-127767009D01*
X87112779Y-127767011D01*
X87196443Y-127923533D01*
X87196443Y-127923534D01*
X87247963Y-128093373D01*
X87265359Y-128270000D01*
X87247963Y-128446627D01*
X87235092Y-128489056D01*
X87196443Y-128616467D01*
X87191490Y-128625733D01*
X87112778Y-128772991D01*
X87083448Y-128808729D01*
X87000186Y-128910186D01*
X86900323Y-128992140D01*
X86862991Y-129022778D01*
X86862989Y-129022779D01*
X86706467Y-129106443D01*
X86649853Y-129123616D01*
X86536627Y-129157963D01*
X86470442Y-129164482D01*
X86404260Y-129171000D01*
X86315740Y-129171000D01*
X86249558Y-129164482D01*
X86183373Y-129157963D01*
X86070147Y-129123616D01*
X86013533Y-129106443D01*
X85857011Y-129022779D01*
X85857009Y-129022778D01*
X85819677Y-128992140D01*
X85719814Y-128910186D01*
X85636552Y-128808729D01*
X85607222Y-128772991D01*
X85528510Y-128625733D01*
X85523557Y-128616467D01*
X85484908Y-128489056D01*
X85472037Y-128446627D01*
X85454641Y-128270000D01*
X85472037Y-128093373D01*
X85523557Y-127923534D01*
X85523557Y-127923533D01*
X85607221Y-127767011D01*
X85607222Y-127767009D01*
X85636552Y-127731271D01*
X85719814Y-127629814D01*
X85854843Y-127519000D01*
X85857009Y-127517222D01*
X85874913Y-127507652D01*
X86013533Y-127433557D01*
X86083339Y-127412382D01*
X86183373Y-127382037D01*
X86249558Y-127375518D01*
X86315740Y-127369000D01*
X86404260Y-127369000D01*
X86470442Y-127375518D01*
X86470442Y-127375518D01*
G37*
G36*
X111870442Y-127375518D02*
X111936627Y-127382037D01*
X112036661Y-127412382D01*
X112106467Y-127433557D01*
X112245087Y-127507652D01*
X112262991Y-127517222D01*
X112265157Y-127519000D01*
X112400186Y-127629814D01*
X112483448Y-127731271D01*
X112512778Y-127767009D01*
X112512779Y-127767011D01*
X112596443Y-127923533D01*
X112596443Y-127923534D01*
X112647963Y-128093373D01*
X112665359Y-128270000D01*
X112647963Y-128446627D01*
X112635092Y-128489056D01*
X112596443Y-128616467D01*
X112591490Y-128625733D01*
X112512778Y-128772991D01*
X112483448Y-128808729D01*
X112400186Y-128910186D01*
X112300323Y-128992140D01*
X112262991Y-129022778D01*
X112262989Y-129022779D01*
X112106467Y-129106443D01*
X112049853Y-129123616D01*
X111936627Y-129157963D01*
X111870442Y-129164482D01*
X111804260Y-129171000D01*
X111715740Y-129171000D01*
X111649558Y-129164482D01*
X111583373Y-129157963D01*
X111470147Y-129123616D01*
X111413533Y-129106443D01*
X111257011Y-129022779D01*
X111257009Y-129022778D01*
X111219677Y-128992140D01*
X111119814Y-128910186D01*
X111036552Y-128808729D01*
X111007222Y-128772991D01*
X110928510Y-128625733D01*
X110923557Y-128616467D01*
X110884908Y-128489056D01*
X110872037Y-128446627D01*
X110854641Y-128270000D01*
X110872037Y-128093373D01*
X110923557Y-127923534D01*
X110923557Y-127923533D01*
X111007221Y-127767011D01*
X111007222Y-127767009D01*
X111036552Y-127731271D01*
X111119814Y-127629814D01*
X111254843Y-127519000D01*
X111257009Y-127517222D01*
X111274913Y-127507652D01*
X111413533Y-127433557D01*
X111483339Y-127412382D01*
X111583373Y-127382037D01*
X111649558Y-127375518D01*
X111715740Y-127369000D01*
X111804260Y-127369000D01*
X111870442Y-127375518D01*
X111870442Y-127375518D01*
G37*
G36*
X80142004Y-127530544D02*
X80229059Y-127547860D01*
X80365732Y-127604472D01*
X80365733Y-127604473D01*
X80488738Y-127686662D01*
X80593338Y-127791262D01*
X80593340Y-127791265D01*
X80675528Y-127914268D01*
X80732140Y-128050941D01*
X80761000Y-128196033D01*
X80761000Y-128343967D01*
X80732140Y-128489059D01*
X80675528Y-128625732D01*
X80675527Y-128625733D01*
X80593338Y-128748738D01*
X80488738Y-128853338D01*
X80488735Y-128853340D01*
X80365732Y-128935528D01*
X80229059Y-128992140D01*
X80142004Y-129009456D01*
X80083969Y-129021000D01*
X79936031Y-129021000D01*
X79877996Y-129009456D01*
X79790941Y-128992140D01*
X79654268Y-128935528D01*
X79531265Y-128853340D01*
X79531262Y-128853338D01*
X79426662Y-128748738D01*
X79344473Y-128625733D01*
X79344472Y-128625732D01*
X79287860Y-128489059D01*
X79259000Y-128343967D01*
X79259000Y-128196033D01*
X79287860Y-128050941D01*
X79344472Y-127914268D01*
X79426660Y-127791265D01*
X79426662Y-127791262D01*
X79531262Y-127686662D01*
X79654267Y-127604473D01*
X79654268Y-127604472D01*
X79790941Y-127547860D01*
X79877996Y-127530544D01*
X79936031Y-127519000D01*
X80083969Y-127519000D01*
X80142004Y-127530544D01*
X80142004Y-127530544D01*
G37*
G36*
X147658855Y-126892140D02*
X147722618Y-126898420D01*
X147804427Y-126923237D01*
X147845333Y-126935645D01*
X147945491Y-126989181D01*
X147958426Y-126996095D01*
X148057553Y-127077447D01*
X148138905Y-127176574D01*
X148138906Y-127176576D01*
X148199355Y-127289667D01*
X148199355Y-127289668D01*
X148236580Y-127412382D01*
X148249149Y-127540000D01*
X148236580Y-127667618D01*
X148230803Y-127686662D01*
X148199355Y-127790333D01*
X148145819Y-127890491D01*
X148138905Y-127903426D01*
X148057553Y-128002553D01*
X147958426Y-128083905D01*
X147958424Y-128083906D01*
X147845333Y-128144355D01*
X147804427Y-128156763D01*
X147722618Y-128181580D01*
X147658855Y-128187860D01*
X147626974Y-128191000D01*
X147013026Y-128191000D01*
X146981145Y-128187860D01*
X146917382Y-128181580D01*
X146835573Y-128156763D01*
X146794667Y-128144355D01*
X146681576Y-128083906D01*
X146681574Y-128083905D01*
X146582447Y-128002553D01*
X146501095Y-127903426D01*
X146494181Y-127890491D01*
X146440645Y-127790333D01*
X146409197Y-127686662D01*
X146403420Y-127667618D01*
X146390851Y-127540000D01*
X146403420Y-127412382D01*
X146440645Y-127289668D01*
X146440645Y-127289667D01*
X146501094Y-127176576D01*
X146501095Y-127176574D01*
X146582447Y-127077447D01*
X146681574Y-126996095D01*
X146694509Y-126989181D01*
X146794667Y-126935645D01*
X146835573Y-126923237D01*
X146917382Y-126898420D01*
X146981145Y-126892140D01*
X147013026Y-126889000D01*
X147626974Y-126889000D01*
X147658855Y-126892140D01*
X147658855Y-126892140D01*
G37*
G36*
X86470443Y-124835519D02*
X86536627Y-124842037D01*
X86649853Y-124876384D01*
X86706467Y-124893557D01*
X86845087Y-124967652D01*
X86862991Y-124977222D01*
X86898729Y-125006552D01*
X87000186Y-125089814D01*
X87083448Y-125191271D01*
X87112778Y-125227009D01*
X87112779Y-125227011D01*
X87196443Y-125383533D01*
X87196443Y-125383534D01*
X87247963Y-125553373D01*
X87265359Y-125730000D01*
X87247963Y-125906627D01*
X87213616Y-126019853D01*
X87196443Y-126076467D01*
X87122348Y-126215087D01*
X87112778Y-126232991D01*
X87083448Y-126268729D01*
X87000186Y-126370186D01*
X86898729Y-126453448D01*
X86862991Y-126482778D01*
X86862989Y-126482779D01*
X86706467Y-126566443D01*
X86649853Y-126583616D01*
X86536627Y-126617963D01*
X86470442Y-126624482D01*
X86404260Y-126631000D01*
X86315740Y-126631000D01*
X86249558Y-126624482D01*
X86183373Y-126617963D01*
X86070147Y-126583616D01*
X86013533Y-126566443D01*
X85857011Y-126482779D01*
X85857009Y-126482778D01*
X85821271Y-126453448D01*
X85719814Y-126370186D01*
X85636552Y-126268729D01*
X85607222Y-126232991D01*
X85597652Y-126215087D01*
X85523557Y-126076467D01*
X85506384Y-126019853D01*
X85472037Y-125906627D01*
X85454641Y-125730000D01*
X85472037Y-125553373D01*
X85523557Y-125383534D01*
X85523557Y-125383533D01*
X85607221Y-125227011D01*
X85607222Y-125227009D01*
X85636552Y-125191271D01*
X85719814Y-125089814D01*
X85821271Y-125006552D01*
X85857009Y-124977222D01*
X85874913Y-124967652D01*
X86013533Y-124893557D01*
X86070147Y-124876384D01*
X86183373Y-124842037D01*
X86249557Y-124835519D01*
X86315740Y-124829000D01*
X86404260Y-124829000D01*
X86470443Y-124835519D01*
X86470443Y-124835519D01*
G37*
G36*
X111870443Y-124835519D02*
X111936627Y-124842037D01*
X112049853Y-124876384D01*
X112106467Y-124893557D01*
X112245087Y-124967652D01*
X112262991Y-124977222D01*
X112298729Y-125006552D01*
X112400186Y-125089814D01*
X112483448Y-125191271D01*
X112512778Y-125227009D01*
X112512779Y-125227011D01*
X112596443Y-125383533D01*
X112596443Y-125383534D01*
X112647963Y-125553373D01*
X112665359Y-125730000D01*
X112647963Y-125906627D01*
X112613616Y-126019853D01*
X112596443Y-126076467D01*
X112522348Y-126215087D01*
X112512778Y-126232991D01*
X112483448Y-126268729D01*
X112400186Y-126370186D01*
X112298729Y-126453448D01*
X112262991Y-126482778D01*
X112262989Y-126482779D01*
X112106467Y-126566443D01*
X112049853Y-126583616D01*
X111936627Y-126617963D01*
X111870442Y-126624482D01*
X111804260Y-126631000D01*
X111715740Y-126631000D01*
X111649558Y-126624482D01*
X111583373Y-126617963D01*
X111470147Y-126583616D01*
X111413533Y-126566443D01*
X111257011Y-126482779D01*
X111257009Y-126482778D01*
X111221271Y-126453448D01*
X111119814Y-126370186D01*
X111036552Y-126268729D01*
X111007222Y-126232991D01*
X110997652Y-126215087D01*
X110923557Y-126076467D01*
X110906384Y-126019853D01*
X110872037Y-125906627D01*
X110854641Y-125730000D01*
X110872037Y-125553373D01*
X110923557Y-125383534D01*
X110923557Y-125383533D01*
X111007221Y-125227011D01*
X111007222Y-125227009D01*
X111036552Y-125191271D01*
X111119814Y-125089814D01*
X111221271Y-125006552D01*
X111257009Y-124977222D01*
X111274913Y-124967652D01*
X111413533Y-124893557D01*
X111470147Y-124876384D01*
X111583373Y-124842037D01*
X111649557Y-124835519D01*
X111715740Y-124829000D01*
X111804260Y-124829000D01*
X111870443Y-124835519D01*
X111870443Y-124835519D01*
G37*
G36*
X86470443Y-122295519D02*
X86536627Y-122302037D01*
X86649853Y-122336384D01*
X86706467Y-122353557D01*
X86845087Y-122427652D01*
X86862991Y-122437222D01*
X86898729Y-122466552D01*
X87000186Y-122549814D01*
X87083448Y-122651271D01*
X87112778Y-122687009D01*
X87112779Y-122687011D01*
X87196443Y-122843533D01*
X87196443Y-122843534D01*
X87247963Y-123013373D01*
X87265359Y-123190000D01*
X87247963Y-123366627D01*
X87213616Y-123479853D01*
X87196443Y-123536467D01*
X87122348Y-123675087D01*
X87112778Y-123692991D01*
X87083448Y-123728729D01*
X87000186Y-123830186D01*
X86898729Y-123913448D01*
X86862991Y-123942778D01*
X86862989Y-123942779D01*
X86706467Y-124026443D01*
X86649853Y-124043616D01*
X86536627Y-124077963D01*
X86470442Y-124084482D01*
X86404260Y-124091000D01*
X86315740Y-124091000D01*
X86249558Y-124084482D01*
X86183373Y-124077963D01*
X86070147Y-124043616D01*
X86013533Y-124026443D01*
X85857011Y-123942779D01*
X85857009Y-123942778D01*
X85821271Y-123913448D01*
X85719814Y-123830186D01*
X85636552Y-123728729D01*
X85607222Y-123692991D01*
X85597652Y-123675087D01*
X85523557Y-123536467D01*
X85506384Y-123479853D01*
X85472037Y-123366627D01*
X85454641Y-123190000D01*
X85472037Y-123013373D01*
X85523557Y-122843534D01*
X85523557Y-122843533D01*
X85607221Y-122687011D01*
X85607222Y-122687009D01*
X85636552Y-122651271D01*
X85719814Y-122549814D01*
X85821271Y-122466552D01*
X85857009Y-122437222D01*
X85874913Y-122427652D01*
X86013533Y-122353557D01*
X86070147Y-122336384D01*
X86183373Y-122302037D01*
X86249557Y-122295519D01*
X86315740Y-122289000D01*
X86404260Y-122289000D01*
X86470443Y-122295519D01*
X86470443Y-122295519D01*
G37*
G36*
X111870443Y-122295519D02*
X111936627Y-122302037D01*
X112049853Y-122336384D01*
X112106467Y-122353557D01*
X112245087Y-122427652D01*
X112262991Y-122437222D01*
X112298729Y-122466552D01*
X112400186Y-122549814D01*
X112483448Y-122651271D01*
X112512778Y-122687009D01*
X112512779Y-122687011D01*
X112596443Y-122843533D01*
X112596443Y-122843534D01*
X112647963Y-123013373D01*
X112665359Y-123190000D01*
X112647963Y-123366627D01*
X112613616Y-123479853D01*
X112596443Y-123536467D01*
X112522348Y-123675087D01*
X112512778Y-123692991D01*
X112483448Y-123728729D01*
X112400186Y-123830186D01*
X112298729Y-123913448D01*
X112262991Y-123942778D01*
X112262989Y-123942779D01*
X112106467Y-124026443D01*
X112049853Y-124043616D01*
X111936627Y-124077963D01*
X111870442Y-124084482D01*
X111804260Y-124091000D01*
X111715740Y-124091000D01*
X111649558Y-124084482D01*
X111583373Y-124077963D01*
X111470147Y-124043616D01*
X111413533Y-124026443D01*
X111257011Y-123942779D01*
X111257009Y-123942778D01*
X111221271Y-123913448D01*
X111119814Y-123830186D01*
X111036552Y-123728729D01*
X111007222Y-123692991D01*
X110997652Y-123675087D01*
X110923557Y-123536467D01*
X110906384Y-123479853D01*
X110872037Y-123366627D01*
X110854641Y-123190000D01*
X110872037Y-123013373D01*
X110923557Y-122843534D01*
X110923557Y-122843533D01*
X111007221Y-122687011D01*
X111007222Y-122687009D01*
X111036552Y-122651271D01*
X111119814Y-122549814D01*
X111221271Y-122466552D01*
X111257009Y-122437222D01*
X111274913Y-122427652D01*
X111413533Y-122353557D01*
X111470147Y-122336384D01*
X111583373Y-122302037D01*
X111649557Y-122295519D01*
X111715740Y-122289000D01*
X111804260Y-122289000D01*
X111870443Y-122295519D01*
X111870443Y-122295519D01*
G37*
G36*
X148700443Y-120390519D02*
X148766627Y-120397037D01*
X148879853Y-120431384D01*
X148936467Y-120448557D01*
X149075087Y-120522652D01*
X149092991Y-120532222D01*
X149128729Y-120561552D01*
X149230186Y-120644814D01*
X149313448Y-120746271D01*
X149342778Y-120782009D01*
X149342779Y-120782011D01*
X149426443Y-120938533D01*
X149426443Y-120938534D01*
X149477963Y-121108373D01*
X149495359Y-121285000D01*
X149477963Y-121461627D01*
X149470435Y-121486443D01*
X149426443Y-121631467D01*
X149352348Y-121770087D01*
X149342778Y-121787991D01*
X149313448Y-121823729D01*
X149230186Y-121925186D01*
X149128729Y-122008448D01*
X149092991Y-122037778D01*
X149092989Y-122037779D01*
X148936467Y-122121443D01*
X148879853Y-122138616D01*
X148766627Y-122172963D01*
X148700442Y-122179482D01*
X148634260Y-122186000D01*
X148545740Y-122186000D01*
X148479558Y-122179482D01*
X148413373Y-122172963D01*
X148300147Y-122138616D01*
X148243533Y-122121443D01*
X148087011Y-122037779D01*
X148087009Y-122037778D01*
X148051271Y-122008448D01*
X147949814Y-121925186D01*
X147866552Y-121823729D01*
X147837222Y-121787991D01*
X147827652Y-121770087D01*
X147753557Y-121631467D01*
X147709565Y-121486443D01*
X147702037Y-121461627D01*
X147684641Y-121285000D01*
X147702037Y-121108373D01*
X147753557Y-120938534D01*
X147753557Y-120938533D01*
X147837221Y-120782011D01*
X147837222Y-120782009D01*
X147866552Y-120746271D01*
X147949814Y-120644814D01*
X148051271Y-120561552D01*
X148087009Y-120532222D01*
X148104913Y-120522652D01*
X148243533Y-120448557D01*
X148300147Y-120431384D01*
X148413373Y-120397037D01*
X148479557Y-120390519D01*
X148545740Y-120384000D01*
X148634260Y-120384000D01*
X148700443Y-120390519D01*
X148700443Y-120390519D01*
G37*
G36*
X146160443Y-120390519D02*
X146226627Y-120397037D01*
X146339853Y-120431384D01*
X146396467Y-120448557D01*
X146535087Y-120522652D01*
X146552991Y-120532222D01*
X146588729Y-120561552D01*
X146690186Y-120644814D01*
X146773448Y-120746271D01*
X146802778Y-120782009D01*
X146802779Y-120782011D01*
X146886443Y-120938533D01*
X146886443Y-120938534D01*
X146937963Y-121108373D01*
X146955359Y-121285000D01*
X146937963Y-121461627D01*
X146930435Y-121486443D01*
X146886443Y-121631467D01*
X146812348Y-121770087D01*
X146802778Y-121787991D01*
X146773448Y-121823729D01*
X146690186Y-121925186D01*
X146588729Y-122008448D01*
X146552991Y-122037778D01*
X146552989Y-122037779D01*
X146396467Y-122121443D01*
X146339853Y-122138616D01*
X146226627Y-122172963D01*
X146160442Y-122179482D01*
X146094260Y-122186000D01*
X146005740Y-122186000D01*
X145939558Y-122179482D01*
X145873373Y-122172963D01*
X145760147Y-122138616D01*
X145703533Y-122121443D01*
X145547011Y-122037779D01*
X145547009Y-122037778D01*
X145511271Y-122008448D01*
X145409814Y-121925186D01*
X145326552Y-121823729D01*
X145297222Y-121787991D01*
X145287652Y-121770087D01*
X145213557Y-121631467D01*
X145169565Y-121486443D01*
X145162037Y-121461627D01*
X145144641Y-121285000D01*
X145162037Y-121108373D01*
X145213557Y-120938534D01*
X145213557Y-120938533D01*
X145297221Y-120782011D01*
X145297222Y-120782009D01*
X145326552Y-120746271D01*
X145409814Y-120644814D01*
X145511271Y-120561552D01*
X145547009Y-120532222D01*
X145564913Y-120522652D01*
X145703533Y-120448557D01*
X145760147Y-120431384D01*
X145873373Y-120397037D01*
X145939557Y-120390519D01*
X146005740Y-120384000D01*
X146094260Y-120384000D01*
X146160443Y-120390519D01*
X146160443Y-120390519D01*
G37*
G36*
X111870442Y-119755518D02*
X111936627Y-119762037D01*
X112049853Y-119796384D01*
X112106467Y-119813557D01*
X112245087Y-119887652D01*
X112262991Y-119897222D01*
X112298729Y-119926552D01*
X112400186Y-120009814D01*
X112483448Y-120111271D01*
X112512778Y-120147009D01*
X112512779Y-120147011D01*
X112596443Y-120303533D01*
X112596443Y-120303534D01*
X112647963Y-120473373D01*
X112665359Y-120650000D01*
X112647963Y-120826627D01*
X112614017Y-120938533D01*
X112596443Y-120996467D01*
X112536627Y-121108373D01*
X112512778Y-121152991D01*
X112483448Y-121188729D01*
X112400186Y-121290186D01*
X112298729Y-121373448D01*
X112262991Y-121402778D01*
X112262989Y-121402779D01*
X112106467Y-121486443D01*
X112049853Y-121503616D01*
X111936627Y-121537963D01*
X111870443Y-121544481D01*
X111804260Y-121551000D01*
X111715740Y-121551000D01*
X111649557Y-121544481D01*
X111583373Y-121537963D01*
X111470147Y-121503616D01*
X111413533Y-121486443D01*
X111257011Y-121402779D01*
X111257009Y-121402778D01*
X111221271Y-121373448D01*
X111119814Y-121290186D01*
X111036552Y-121188729D01*
X111007222Y-121152991D01*
X110983373Y-121108373D01*
X110923557Y-120996467D01*
X110905983Y-120938533D01*
X110872037Y-120826627D01*
X110854641Y-120650000D01*
X110872037Y-120473373D01*
X110923557Y-120303534D01*
X110923557Y-120303533D01*
X111007221Y-120147011D01*
X111007222Y-120147009D01*
X111036552Y-120111271D01*
X111119814Y-120009814D01*
X111221271Y-119926552D01*
X111257009Y-119897222D01*
X111274913Y-119887652D01*
X111413533Y-119813557D01*
X111470147Y-119796384D01*
X111583373Y-119762037D01*
X111649558Y-119755518D01*
X111715740Y-119749000D01*
X111804260Y-119749000D01*
X111870442Y-119755518D01*
X111870442Y-119755518D01*
G37*
G36*
X86470442Y-119755518D02*
X86536627Y-119762037D01*
X86649853Y-119796384D01*
X86706467Y-119813557D01*
X86845087Y-119887652D01*
X86862991Y-119897222D01*
X86898729Y-119926552D01*
X87000186Y-120009814D01*
X87083448Y-120111271D01*
X87112778Y-120147009D01*
X87112779Y-120147011D01*
X87196443Y-120303533D01*
X87196443Y-120303534D01*
X87247963Y-120473373D01*
X87265359Y-120650000D01*
X87247963Y-120826627D01*
X87214017Y-120938533D01*
X87196443Y-120996467D01*
X87136627Y-121108373D01*
X87112778Y-121152991D01*
X87083448Y-121188729D01*
X87000186Y-121290186D01*
X86898729Y-121373448D01*
X86862991Y-121402778D01*
X86862989Y-121402779D01*
X86706467Y-121486443D01*
X86649853Y-121503616D01*
X86536627Y-121537963D01*
X86470443Y-121544481D01*
X86404260Y-121551000D01*
X86315740Y-121551000D01*
X86249557Y-121544481D01*
X86183373Y-121537963D01*
X86070147Y-121503616D01*
X86013533Y-121486443D01*
X85857011Y-121402779D01*
X85857009Y-121402778D01*
X85821271Y-121373448D01*
X85719814Y-121290186D01*
X85636552Y-121188729D01*
X85607222Y-121152991D01*
X85583373Y-121108373D01*
X85523557Y-120996467D01*
X85505983Y-120938533D01*
X85472037Y-120826627D01*
X85454641Y-120650000D01*
X85472037Y-120473373D01*
X85523557Y-120303534D01*
X85523557Y-120303533D01*
X85607221Y-120147011D01*
X85607222Y-120147009D01*
X85636552Y-120111271D01*
X85719814Y-120009814D01*
X85821271Y-119926552D01*
X85857009Y-119897222D01*
X85874913Y-119887652D01*
X86013533Y-119813557D01*
X86070147Y-119796384D01*
X86183373Y-119762037D01*
X86249558Y-119755518D01*
X86315740Y-119749000D01*
X86404260Y-119749000D01*
X86470442Y-119755518D01*
X86470442Y-119755518D01*
G37*
G36*
X148700442Y-117850518D02*
X148766627Y-117857037D01*
X148879853Y-117891384D01*
X148936467Y-117908557D01*
X149075087Y-117982652D01*
X149092991Y-117992222D01*
X149128729Y-118021552D01*
X149230186Y-118104814D01*
X149313448Y-118206271D01*
X149342778Y-118242009D01*
X149342779Y-118242011D01*
X149426443Y-118398533D01*
X149426443Y-118398534D01*
X149477963Y-118568373D01*
X149495359Y-118745000D01*
X149477963Y-118921627D01*
X149470435Y-118946443D01*
X149426443Y-119091467D01*
X149352348Y-119230087D01*
X149342778Y-119247991D01*
X149313448Y-119283729D01*
X149230186Y-119385186D01*
X149128729Y-119468448D01*
X149092991Y-119497778D01*
X149092989Y-119497779D01*
X148936467Y-119581443D01*
X148879853Y-119598616D01*
X148766627Y-119632963D01*
X148700443Y-119639481D01*
X148634260Y-119646000D01*
X148545740Y-119646000D01*
X148479557Y-119639481D01*
X148413373Y-119632963D01*
X148300147Y-119598616D01*
X148243533Y-119581443D01*
X148087011Y-119497779D01*
X148087009Y-119497778D01*
X148051271Y-119468448D01*
X147949814Y-119385186D01*
X147866552Y-119283729D01*
X147837222Y-119247991D01*
X147827652Y-119230087D01*
X147753557Y-119091467D01*
X147709565Y-118946443D01*
X147702037Y-118921627D01*
X147684641Y-118745000D01*
X147702037Y-118568373D01*
X147753557Y-118398534D01*
X147753557Y-118398533D01*
X147837221Y-118242011D01*
X147837222Y-118242009D01*
X147866552Y-118206271D01*
X147949814Y-118104814D01*
X148051271Y-118021552D01*
X148087009Y-117992222D01*
X148104913Y-117982652D01*
X148243533Y-117908557D01*
X148300147Y-117891384D01*
X148413373Y-117857037D01*
X148479558Y-117850518D01*
X148545740Y-117844000D01*
X148634260Y-117844000D01*
X148700442Y-117850518D01*
X148700442Y-117850518D01*
G37*
G36*
X146160442Y-117850518D02*
X146226627Y-117857037D01*
X146339853Y-117891384D01*
X146396467Y-117908557D01*
X146535087Y-117982652D01*
X146552991Y-117992222D01*
X146588729Y-118021552D01*
X146690186Y-118104814D01*
X146773448Y-118206271D01*
X146802778Y-118242009D01*
X146802779Y-118242011D01*
X146886443Y-118398533D01*
X146886443Y-118398534D01*
X146937963Y-118568373D01*
X146955359Y-118745000D01*
X146937963Y-118921627D01*
X146930435Y-118946443D01*
X146886443Y-119091467D01*
X146812348Y-119230087D01*
X146802778Y-119247991D01*
X146773448Y-119283729D01*
X146690186Y-119385186D01*
X146588729Y-119468448D01*
X146552991Y-119497778D01*
X146552989Y-119497779D01*
X146396467Y-119581443D01*
X146339853Y-119598616D01*
X146226627Y-119632963D01*
X146160443Y-119639481D01*
X146094260Y-119646000D01*
X146005740Y-119646000D01*
X145939557Y-119639481D01*
X145873373Y-119632963D01*
X145760147Y-119598616D01*
X145703533Y-119581443D01*
X145547011Y-119497779D01*
X145547009Y-119497778D01*
X145511271Y-119468448D01*
X145409814Y-119385186D01*
X145326552Y-119283729D01*
X145297222Y-119247991D01*
X145287652Y-119230087D01*
X145213557Y-119091467D01*
X145169565Y-118946443D01*
X145162037Y-118921627D01*
X145144641Y-118745000D01*
X145162037Y-118568373D01*
X145213557Y-118398534D01*
X145213557Y-118398533D01*
X145297221Y-118242011D01*
X145297222Y-118242009D01*
X145326552Y-118206271D01*
X145409814Y-118104814D01*
X145511271Y-118021552D01*
X145547009Y-117992222D01*
X145564913Y-117982652D01*
X145703533Y-117908557D01*
X145760147Y-117891384D01*
X145873373Y-117857037D01*
X145939558Y-117850518D01*
X146005740Y-117844000D01*
X146094260Y-117844000D01*
X146160442Y-117850518D01*
X146160442Y-117850518D01*
G37*
G36*
X86470443Y-117215519D02*
X86536627Y-117222037D01*
X86649853Y-117256384D01*
X86706467Y-117273557D01*
X86845087Y-117347652D01*
X86862991Y-117357222D01*
X86898729Y-117386552D01*
X87000186Y-117469814D01*
X87083448Y-117571271D01*
X87112778Y-117607009D01*
X87112779Y-117607011D01*
X87196443Y-117763533D01*
X87196443Y-117763534D01*
X87247963Y-117933373D01*
X87265359Y-118110000D01*
X87247963Y-118286627D01*
X87214017Y-118398533D01*
X87196443Y-118456467D01*
X87136627Y-118568373D01*
X87112778Y-118612991D01*
X87083448Y-118648729D01*
X87000186Y-118750186D01*
X86898729Y-118833448D01*
X86862991Y-118862778D01*
X86862989Y-118862779D01*
X86706467Y-118946443D01*
X86649853Y-118963616D01*
X86536627Y-118997963D01*
X86470443Y-119004481D01*
X86404260Y-119011000D01*
X86315740Y-119011000D01*
X86249557Y-119004481D01*
X86183373Y-118997963D01*
X86070147Y-118963616D01*
X86013533Y-118946443D01*
X85857011Y-118862779D01*
X85857009Y-118862778D01*
X85821271Y-118833448D01*
X85719814Y-118750186D01*
X85636552Y-118648729D01*
X85607222Y-118612991D01*
X85583373Y-118568373D01*
X85523557Y-118456467D01*
X85505983Y-118398533D01*
X85472037Y-118286627D01*
X85454641Y-118110000D01*
X85472037Y-117933373D01*
X85523557Y-117763534D01*
X85523557Y-117763533D01*
X85607221Y-117607011D01*
X85607222Y-117607009D01*
X85636552Y-117571271D01*
X85719814Y-117469814D01*
X85821271Y-117386552D01*
X85857009Y-117357222D01*
X85874913Y-117347652D01*
X86013533Y-117273557D01*
X86070147Y-117256384D01*
X86183373Y-117222037D01*
X86249557Y-117215519D01*
X86315740Y-117209000D01*
X86404260Y-117209000D01*
X86470443Y-117215519D01*
X86470443Y-117215519D01*
G37*
G36*
X111870443Y-117215519D02*
X111936627Y-117222037D01*
X112049853Y-117256384D01*
X112106467Y-117273557D01*
X112245087Y-117347652D01*
X112262991Y-117357222D01*
X112298729Y-117386552D01*
X112400186Y-117469814D01*
X112483448Y-117571271D01*
X112512778Y-117607009D01*
X112512779Y-117607011D01*
X112596443Y-117763533D01*
X112596443Y-117763534D01*
X112647963Y-117933373D01*
X112665359Y-118110000D01*
X112647963Y-118286627D01*
X112614017Y-118398533D01*
X112596443Y-118456467D01*
X112536627Y-118568373D01*
X112512778Y-118612991D01*
X112483448Y-118648729D01*
X112400186Y-118750186D01*
X112298729Y-118833448D01*
X112262991Y-118862778D01*
X112262989Y-118862779D01*
X112106467Y-118946443D01*
X112049853Y-118963616D01*
X111936627Y-118997963D01*
X111870443Y-119004481D01*
X111804260Y-119011000D01*
X111715740Y-119011000D01*
X111649557Y-119004481D01*
X111583373Y-118997963D01*
X111470147Y-118963616D01*
X111413533Y-118946443D01*
X111257011Y-118862779D01*
X111257009Y-118862778D01*
X111221271Y-118833448D01*
X111119814Y-118750186D01*
X111036552Y-118648729D01*
X111007222Y-118612991D01*
X110983373Y-118568373D01*
X110923557Y-118456467D01*
X110905983Y-118398533D01*
X110872037Y-118286627D01*
X110854641Y-118110000D01*
X110872037Y-117933373D01*
X110923557Y-117763534D01*
X110923557Y-117763533D01*
X111007221Y-117607011D01*
X111007222Y-117607009D01*
X111036552Y-117571271D01*
X111119814Y-117469814D01*
X111221271Y-117386552D01*
X111257009Y-117357222D01*
X111274913Y-117347652D01*
X111413533Y-117273557D01*
X111470147Y-117256384D01*
X111583373Y-117222037D01*
X111649557Y-117215519D01*
X111715740Y-117209000D01*
X111804260Y-117209000D01*
X111870443Y-117215519D01*
X111870443Y-117215519D01*
G37*
G36*
X146160442Y-115310518D02*
X146226627Y-115317037D01*
X146339853Y-115351384D01*
X146396467Y-115368557D01*
X146500940Y-115424400D01*
X146552991Y-115452222D01*
X146588729Y-115481552D01*
X146690186Y-115564814D01*
X146773448Y-115666271D01*
X146802778Y-115702009D01*
X146802779Y-115702011D01*
X146886443Y-115858533D01*
X146903530Y-115914862D01*
X146937963Y-116028373D01*
X146955359Y-116205000D01*
X146937963Y-116381627D01*
X146914807Y-116457963D01*
X146886443Y-116551467D01*
X146812348Y-116690087D01*
X146802778Y-116707991D01*
X146773448Y-116743729D01*
X146690186Y-116845186D01*
X146588729Y-116928448D01*
X146552991Y-116957778D01*
X146552989Y-116957779D01*
X146396467Y-117041443D01*
X146339853Y-117058616D01*
X146226627Y-117092963D01*
X146160443Y-117099481D01*
X146094260Y-117106000D01*
X146005740Y-117106000D01*
X145939557Y-117099481D01*
X145873373Y-117092963D01*
X145760147Y-117058616D01*
X145703533Y-117041443D01*
X145547011Y-116957779D01*
X145547009Y-116957778D01*
X145511271Y-116928448D01*
X145409814Y-116845186D01*
X145326552Y-116743729D01*
X145297222Y-116707991D01*
X145287652Y-116690087D01*
X145213557Y-116551467D01*
X145185193Y-116457963D01*
X145162037Y-116381627D01*
X145144641Y-116205000D01*
X145162037Y-116028373D01*
X145196470Y-115914862D01*
X145213557Y-115858533D01*
X145297221Y-115702011D01*
X145297222Y-115702009D01*
X145326552Y-115666271D01*
X145409814Y-115564814D01*
X145511271Y-115481552D01*
X145547009Y-115452222D01*
X145599060Y-115424400D01*
X145703533Y-115368557D01*
X145760147Y-115351384D01*
X145873373Y-115317037D01*
X145939558Y-115310518D01*
X146005740Y-115304000D01*
X146094260Y-115304000D01*
X146160442Y-115310518D01*
X146160442Y-115310518D01*
G37*
G36*
X148700442Y-115310518D02*
X148766627Y-115317037D01*
X148879853Y-115351384D01*
X148936467Y-115368557D01*
X149040940Y-115424400D01*
X149092991Y-115452222D01*
X149128729Y-115481552D01*
X149230186Y-115564814D01*
X149313448Y-115666271D01*
X149342778Y-115702009D01*
X149342779Y-115702011D01*
X149426443Y-115858533D01*
X149443530Y-115914862D01*
X149477963Y-116028373D01*
X149495359Y-116205000D01*
X149477963Y-116381627D01*
X149454807Y-116457963D01*
X149426443Y-116551467D01*
X149352348Y-116690087D01*
X149342778Y-116707991D01*
X149313448Y-116743729D01*
X149230186Y-116845186D01*
X149128729Y-116928448D01*
X149092991Y-116957778D01*
X149092989Y-116957779D01*
X148936467Y-117041443D01*
X148879853Y-117058616D01*
X148766627Y-117092963D01*
X148700443Y-117099481D01*
X148634260Y-117106000D01*
X148545740Y-117106000D01*
X148479557Y-117099481D01*
X148413373Y-117092963D01*
X148300147Y-117058616D01*
X148243533Y-117041443D01*
X148087011Y-116957779D01*
X148087009Y-116957778D01*
X148051271Y-116928448D01*
X147949814Y-116845186D01*
X147866552Y-116743729D01*
X147837222Y-116707991D01*
X147827652Y-116690087D01*
X147753557Y-116551467D01*
X147725193Y-116457963D01*
X147702037Y-116381627D01*
X147684641Y-116205000D01*
X147702037Y-116028373D01*
X147736470Y-115914862D01*
X147753557Y-115858533D01*
X147837221Y-115702011D01*
X147837222Y-115702009D01*
X147866552Y-115666271D01*
X147949814Y-115564814D01*
X148051271Y-115481552D01*
X148087009Y-115452222D01*
X148139060Y-115424400D01*
X148243533Y-115368557D01*
X148300147Y-115351384D01*
X148413373Y-115317037D01*
X148479558Y-115310518D01*
X148545740Y-115304000D01*
X148634260Y-115304000D01*
X148700442Y-115310518D01*
X148700442Y-115310518D01*
G37*
G36*
X132213604Y-115158347D02*
X132250145Y-115169432D01*
X132283820Y-115187431D01*
X132313341Y-115211659D01*
X132337569Y-115241180D01*
X132355568Y-115274855D01*
X132366653Y-115311396D01*
X132371000Y-115355538D01*
X132371000Y-116304462D01*
X132366653Y-116348604D01*
X132355568Y-116385145D01*
X132337569Y-116418820D01*
X132313341Y-116448341D01*
X132283820Y-116472569D01*
X132250145Y-116490568D01*
X132213604Y-116501653D01*
X132169462Y-116506000D01*
X130720538Y-116506000D01*
X130676396Y-116501653D01*
X130639855Y-116490568D01*
X130606180Y-116472569D01*
X130576659Y-116448341D01*
X130552431Y-116418820D01*
X130534432Y-116385145D01*
X130523347Y-116348604D01*
X130519000Y-116304462D01*
X130519000Y-115355538D01*
X130523347Y-115311396D01*
X130534432Y-115274855D01*
X130552431Y-115241180D01*
X130576659Y-115211659D01*
X130606180Y-115187431D01*
X130639855Y-115169432D01*
X130676396Y-115158347D01*
X130720538Y-115154000D01*
X132169462Y-115154000D01*
X132213604Y-115158347D01*
X132213604Y-115158347D01*
G37*
G36*
X111870443Y-114675519D02*
X111936627Y-114682037D01*
X112049853Y-114716384D01*
X112106467Y-114733557D01*
X112245087Y-114807652D01*
X112262991Y-114817222D01*
X112298729Y-114846552D01*
X112400186Y-114929814D01*
X112483448Y-115031271D01*
X112512778Y-115067009D01*
X112512779Y-115067011D01*
X112596443Y-115223533D01*
X112596443Y-115223534D01*
X112647963Y-115393373D01*
X112665359Y-115570000D01*
X112647963Y-115746627D01*
X112621136Y-115835063D01*
X112596443Y-115916467D01*
X112540746Y-116020667D01*
X112512778Y-116072991D01*
X112501495Y-116086739D01*
X112400186Y-116210186D01*
X112304939Y-116288352D01*
X112262991Y-116322778D01*
X112262989Y-116322779D01*
X112106467Y-116406443D01*
X112049853Y-116423616D01*
X111936627Y-116457963D01*
X111870442Y-116464482D01*
X111804260Y-116471000D01*
X111715740Y-116471000D01*
X111649558Y-116464482D01*
X111583373Y-116457963D01*
X111470147Y-116423616D01*
X111413533Y-116406443D01*
X111257011Y-116322779D01*
X111257009Y-116322778D01*
X111215061Y-116288352D01*
X111119814Y-116210186D01*
X111018505Y-116086739D01*
X111007222Y-116072991D01*
X110979254Y-116020667D01*
X110923557Y-115916467D01*
X110898864Y-115835063D01*
X110872037Y-115746627D01*
X110854641Y-115570000D01*
X110872037Y-115393373D01*
X110923557Y-115223534D01*
X110923557Y-115223533D01*
X111007221Y-115067011D01*
X111007222Y-115067009D01*
X111036552Y-115031271D01*
X111119814Y-114929814D01*
X111221271Y-114846552D01*
X111257009Y-114817222D01*
X111274913Y-114807652D01*
X111413533Y-114733557D01*
X111470147Y-114716384D01*
X111583373Y-114682037D01*
X111649557Y-114675519D01*
X111715740Y-114669000D01*
X111804260Y-114669000D01*
X111870443Y-114675519D01*
X111870443Y-114675519D01*
G37*
G36*
X86470443Y-114675519D02*
X86536627Y-114682037D01*
X86649853Y-114716384D01*
X86706467Y-114733557D01*
X86845087Y-114807652D01*
X86862991Y-114817222D01*
X86898729Y-114846552D01*
X87000186Y-114929814D01*
X87083448Y-115031271D01*
X87112778Y-115067009D01*
X87112779Y-115067011D01*
X87196443Y-115223533D01*
X87196443Y-115223534D01*
X87247963Y-115393373D01*
X87265359Y-115570000D01*
X87247963Y-115746627D01*
X87221136Y-115835063D01*
X87196443Y-115916467D01*
X87140746Y-116020667D01*
X87112778Y-116072991D01*
X87101495Y-116086739D01*
X87000186Y-116210186D01*
X86904939Y-116288352D01*
X86862991Y-116322778D01*
X86862989Y-116322779D01*
X86706467Y-116406443D01*
X86649853Y-116423616D01*
X86536627Y-116457963D01*
X86470442Y-116464482D01*
X86404260Y-116471000D01*
X86315740Y-116471000D01*
X86249558Y-116464482D01*
X86183373Y-116457963D01*
X86070147Y-116423616D01*
X86013533Y-116406443D01*
X85857011Y-116322779D01*
X85857009Y-116322778D01*
X85815061Y-116288352D01*
X85719814Y-116210186D01*
X85618505Y-116086739D01*
X85607222Y-116072991D01*
X85579254Y-116020667D01*
X85523557Y-115916467D01*
X85498864Y-115835063D01*
X85472037Y-115746627D01*
X85454641Y-115570000D01*
X85472037Y-115393373D01*
X85523557Y-115223534D01*
X85523557Y-115223533D01*
X85607221Y-115067011D01*
X85607222Y-115067009D01*
X85636552Y-115031271D01*
X85719814Y-114929814D01*
X85821271Y-114846552D01*
X85857009Y-114817222D01*
X85874913Y-114807652D01*
X86013533Y-114733557D01*
X86070147Y-114716384D01*
X86183373Y-114682037D01*
X86249557Y-114675519D01*
X86315740Y-114669000D01*
X86404260Y-114669000D01*
X86470443Y-114675519D01*
X86470443Y-114675519D01*
G37*
G36*
X123895996Y-112503051D02*
X123929653Y-112513261D01*
X123960667Y-112529838D01*
X123987852Y-112552148D01*
X124010162Y-112579333D01*
X124026739Y-112610347D01*
X124036949Y-112644004D01*
X124041000Y-112685138D01*
X124041000Y-115914862D01*
X124036949Y-115955996D01*
X124026739Y-115989653D01*
X124010162Y-116020667D01*
X123987852Y-116047852D01*
X123960667Y-116070162D01*
X123929653Y-116086739D01*
X123895996Y-116096949D01*
X123854862Y-116101000D01*
X122525138Y-116101000D01*
X122484004Y-116096949D01*
X122450347Y-116086739D01*
X122419333Y-116070162D01*
X122392148Y-116047852D01*
X122369838Y-116020667D01*
X122353261Y-115989653D01*
X122343051Y-115955996D01*
X122339000Y-115914862D01*
X122339000Y-112685138D01*
X122343051Y-112644004D01*
X122353261Y-112610347D01*
X122369838Y-112579333D01*
X122392148Y-112552148D01*
X122419333Y-112529838D01*
X122450347Y-112513261D01*
X122484004Y-112503051D01*
X122525138Y-112499000D01*
X123854862Y-112499000D01*
X123895996Y-112503051D01*
X123895996Y-112503051D01*
G37*
G36*
X148700442Y-112770518D02*
X148766627Y-112777037D01*
X148879853Y-112811384D01*
X148936467Y-112828557D01*
X149075087Y-112902652D01*
X149092991Y-112912222D01*
X149128729Y-112941552D01*
X149230186Y-113024814D01*
X149313448Y-113126271D01*
X149342778Y-113162009D01*
X149342779Y-113162011D01*
X149426443Y-113318533D01*
X149426443Y-113318534D01*
X149477963Y-113488373D01*
X149495359Y-113665000D01*
X149477963Y-113841627D01*
X149470435Y-113866443D01*
X149426443Y-114011467D01*
X149352348Y-114150087D01*
X149342778Y-114167991D01*
X149313448Y-114203729D01*
X149230186Y-114305186D01*
X149128729Y-114388448D01*
X149092991Y-114417778D01*
X149092989Y-114417779D01*
X148936467Y-114501443D01*
X148879853Y-114518616D01*
X148766627Y-114552963D01*
X148700442Y-114559482D01*
X148634260Y-114566000D01*
X148545740Y-114566000D01*
X148479558Y-114559482D01*
X148413373Y-114552963D01*
X148300147Y-114518616D01*
X148243533Y-114501443D01*
X148087011Y-114417779D01*
X148087009Y-114417778D01*
X148051271Y-114388448D01*
X147949814Y-114305186D01*
X147866552Y-114203729D01*
X147837222Y-114167991D01*
X147827652Y-114150087D01*
X147753557Y-114011467D01*
X147709565Y-113866443D01*
X147702037Y-113841627D01*
X147684641Y-113665000D01*
X147702037Y-113488373D01*
X147753557Y-113318534D01*
X147753557Y-113318533D01*
X147837221Y-113162011D01*
X147837222Y-113162009D01*
X147866552Y-113126271D01*
X147949814Y-113024814D01*
X148051271Y-112941552D01*
X148087009Y-112912222D01*
X148104913Y-112902652D01*
X148243533Y-112828557D01*
X148300147Y-112811384D01*
X148413373Y-112777037D01*
X148479558Y-112770518D01*
X148545740Y-112764000D01*
X148634260Y-112764000D01*
X148700442Y-112770518D01*
X148700442Y-112770518D01*
G37*
G36*
X146160442Y-112770518D02*
X146226627Y-112777037D01*
X146339853Y-112811384D01*
X146396467Y-112828557D01*
X146535087Y-112902652D01*
X146552991Y-112912222D01*
X146588729Y-112941552D01*
X146690186Y-113024814D01*
X146773448Y-113126271D01*
X146802778Y-113162009D01*
X146802779Y-113162011D01*
X146886443Y-113318533D01*
X146886443Y-113318534D01*
X146937963Y-113488373D01*
X146955359Y-113665000D01*
X146937963Y-113841627D01*
X146930435Y-113866443D01*
X146886443Y-114011467D01*
X146812348Y-114150087D01*
X146802778Y-114167991D01*
X146773448Y-114203729D01*
X146690186Y-114305186D01*
X146588729Y-114388448D01*
X146552991Y-114417778D01*
X146552989Y-114417779D01*
X146396467Y-114501443D01*
X146339853Y-114518616D01*
X146226627Y-114552963D01*
X146160442Y-114559482D01*
X146094260Y-114566000D01*
X146005740Y-114566000D01*
X145939558Y-114559482D01*
X145873373Y-114552963D01*
X145760147Y-114518616D01*
X145703533Y-114501443D01*
X145547011Y-114417779D01*
X145547009Y-114417778D01*
X145511271Y-114388448D01*
X145409814Y-114305186D01*
X145326552Y-114203729D01*
X145297222Y-114167991D01*
X145287652Y-114150087D01*
X145213557Y-114011467D01*
X145169565Y-113866443D01*
X145162037Y-113841627D01*
X145144641Y-113665000D01*
X145162037Y-113488373D01*
X145213557Y-113318534D01*
X145213557Y-113318533D01*
X145297221Y-113162011D01*
X145297222Y-113162009D01*
X145326552Y-113126271D01*
X145409814Y-113024814D01*
X145511271Y-112941552D01*
X145547009Y-112912222D01*
X145564913Y-112902652D01*
X145703533Y-112828557D01*
X145760147Y-112811384D01*
X145873373Y-112777037D01*
X145939558Y-112770518D01*
X146005740Y-112764000D01*
X146094260Y-112764000D01*
X146160442Y-112770518D01*
X146160442Y-112770518D01*
G37*
G36*
X111870443Y-112135519D02*
X111936627Y-112142037D01*
X112049853Y-112176384D01*
X112106467Y-112193557D01*
X112245087Y-112267652D01*
X112262991Y-112277222D01*
X112298729Y-112306552D01*
X112400186Y-112389814D01*
X112469417Y-112474174D01*
X112512778Y-112527009D01*
X112512779Y-112527011D01*
X112596443Y-112683533D01*
X112596443Y-112683534D01*
X112647963Y-112853373D01*
X112665359Y-113030000D01*
X112647963Y-113206627D01*
X112614017Y-113318533D01*
X112596443Y-113376467D01*
X112564835Y-113435600D01*
X112512778Y-113532991D01*
X112483448Y-113568729D01*
X112400186Y-113670186D01*
X112298729Y-113753448D01*
X112262991Y-113782778D01*
X112262989Y-113782779D01*
X112106467Y-113866443D01*
X112049853Y-113883616D01*
X111936627Y-113917963D01*
X111870443Y-113924481D01*
X111804260Y-113931000D01*
X111715740Y-113931000D01*
X111649557Y-113924481D01*
X111583373Y-113917963D01*
X111470147Y-113883616D01*
X111413533Y-113866443D01*
X111257011Y-113782779D01*
X111257009Y-113782778D01*
X111221271Y-113753448D01*
X111119814Y-113670186D01*
X111036552Y-113568729D01*
X111007222Y-113532991D01*
X110955165Y-113435600D01*
X110923557Y-113376467D01*
X110905983Y-113318533D01*
X110872037Y-113206627D01*
X110854641Y-113030000D01*
X110872037Y-112853373D01*
X110923557Y-112683534D01*
X110923557Y-112683533D01*
X111007221Y-112527011D01*
X111007222Y-112527009D01*
X111050583Y-112474174D01*
X111119814Y-112389814D01*
X111221271Y-112306552D01*
X111257009Y-112277222D01*
X111274913Y-112267652D01*
X111413533Y-112193557D01*
X111470147Y-112176384D01*
X111583373Y-112142037D01*
X111649557Y-112135519D01*
X111715740Y-112129000D01*
X111804260Y-112129000D01*
X111870443Y-112135519D01*
X111870443Y-112135519D01*
G37*
G36*
X86470443Y-112135519D02*
X86536627Y-112142037D01*
X86649853Y-112176384D01*
X86706467Y-112193557D01*
X86845087Y-112267652D01*
X86862991Y-112277222D01*
X86898729Y-112306552D01*
X87000186Y-112389814D01*
X87069417Y-112474174D01*
X87112778Y-112527009D01*
X87112779Y-112527011D01*
X87196443Y-112683533D01*
X87196443Y-112683534D01*
X87247963Y-112853373D01*
X87265359Y-113030000D01*
X87247963Y-113206627D01*
X87214017Y-113318533D01*
X87196443Y-113376467D01*
X87164835Y-113435600D01*
X87112778Y-113532991D01*
X87083448Y-113568729D01*
X87000186Y-113670186D01*
X86898729Y-113753448D01*
X86862991Y-113782778D01*
X86862989Y-113782779D01*
X86706467Y-113866443D01*
X86649853Y-113883616D01*
X86536627Y-113917963D01*
X86470443Y-113924481D01*
X86404260Y-113931000D01*
X86315740Y-113931000D01*
X86249557Y-113924481D01*
X86183373Y-113917963D01*
X86070147Y-113883616D01*
X86013533Y-113866443D01*
X85857011Y-113782779D01*
X85857009Y-113782778D01*
X85821271Y-113753448D01*
X85719814Y-113670186D01*
X85636552Y-113568729D01*
X85607222Y-113532991D01*
X85555165Y-113435600D01*
X85523557Y-113376467D01*
X85505983Y-113318533D01*
X85472037Y-113206627D01*
X85454641Y-113030000D01*
X85472037Y-112853373D01*
X85523557Y-112683534D01*
X85523557Y-112683533D01*
X85607221Y-112527011D01*
X85607222Y-112527009D01*
X85650583Y-112474174D01*
X85719814Y-112389814D01*
X85821271Y-112306552D01*
X85857009Y-112277222D01*
X85874913Y-112267652D01*
X86013533Y-112193557D01*
X86070147Y-112176384D01*
X86183373Y-112142037D01*
X86249557Y-112135519D01*
X86315740Y-112129000D01*
X86404260Y-112129000D01*
X86470443Y-112135519D01*
X86470443Y-112135519D01*
G37*
G36*
X132213604Y-112358347D02*
X132250145Y-112369432D01*
X132283820Y-112387431D01*
X132313341Y-112411659D01*
X132337569Y-112441180D01*
X132355568Y-112474855D01*
X132366653Y-112511396D01*
X132371000Y-112555538D01*
X132371000Y-113504462D01*
X132366653Y-113548604D01*
X132355568Y-113585145D01*
X132337569Y-113618820D01*
X132313341Y-113648341D01*
X132283820Y-113672569D01*
X132250145Y-113690568D01*
X132213604Y-113701653D01*
X132169462Y-113706000D01*
X130720538Y-113706000D01*
X130676396Y-113701653D01*
X130639855Y-113690568D01*
X130606180Y-113672569D01*
X130576659Y-113648341D01*
X130552431Y-113618820D01*
X130534432Y-113585145D01*
X130523347Y-113548604D01*
X130519000Y-113504462D01*
X130519000Y-112555538D01*
X130523347Y-112511396D01*
X130534432Y-112474855D01*
X130552431Y-112441180D01*
X130576659Y-112411659D01*
X130606180Y-112387431D01*
X130639855Y-112369432D01*
X130676396Y-112358347D01*
X130720538Y-112354000D01*
X132169462Y-112354000D01*
X132213604Y-112358347D01*
X132213604Y-112358347D01*
G37*
G36*
X129673604Y-112358347D02*
X129710145Y-112369432D01*
X129743820Y-112387431D01*
X129773341Y-112411659D01*
X129797569Y-112441180D01*
X129815568Y-112474855D01*
X129826653Y-112511396D01*
X129831000Y-112555538D01*
X129831000Y-113504462D01*
X129826653Y-113548604D01*
X129815568Y-113585145D01*
X129797569Y-113618820D01*
X129773341Y-113648341D01*
X129743820Y-113672569D01*
X129710145Y-113690568D01*
X129673604Y-113701653D01*
X129629462Y-113706000D01*
X128180538Y-113706000D01*
X128136396Y-113701653D01*
X128099855Y-113690568D01*
X128066180Y-113672569D01*
X128036659Y-113648341D01*
X128012431Y-113618820D01*
X127994432Y-113585145D01*
X127983347Y-113548604D01*
X127979000Y-113504462D01*
X127979000Y-112555538D01*
X127983347Y-112511396D01*
X127994432Y-112474855D01*
X128012431Y-112441180D01*
X128036659Y-112411659D01*
X128066180Y-112387431D01*
X128099855Y-112369432D01*
X128136396Y-112358347D01*
X128180538Y-112354000D01*
X129629462Y-112354000D01*
X129673604Y-112358347D01*
X129673604Y-112358347D01*
G37*
G36*
X148700443Y-110230519D02*
X148766627Y-110237037D01*
X148879853Y-110271384D01*
X148936467Y-110288557D01*
X149075087Y-110362652D01*
X149092991Y-110372222D01*
X149128729Y-110401552D01*
X149230186Y-110484814D01*
X149310608Y-110582810D01*
X149342778Y-110622009D01*
X149342779Y-110622011D01*
X149426443Y-110778533D01*
X149428655Y-110785826D01*
X149477963Y-110948373D01*
X149495359Y-111125000D01*
X149477963Y-111301627D01*
X149470435Y-111326443D01*
X149426443Y-111471467D01*
X149352348Y-111610087D01*
X149342778Y-111627991D01*
X149313448Y-111663729D01*
X149230186Y-111765186D01*
X149128729Y-111848448D01*
X149092991Y-111877778D01*
X149092989Y-111877779D01*
X148936467Y-111961443D01*
X148879853Y-111978616D01*
X148766627Y-112012963D01*
X148700442Y-112019482D01*
X148634260Y-112026000D01*
X148545740Y-112026000D01*
X148479558Y-112019482D01*
X148413373Y-112012963D01*
X148300147Y-111978616D01*
X148243533Y-111961443D01*
X148087011Y-111877779D01*
X148087009Y-111877778D01*
X148051271Y-111848448D01*
X147949814Y-111765186D01*
X147866552Y-111663729D01*
X147837222Y-111627991D01*
X147827652Y-111610087D01*
X147753557Y-111471467D01*
X147709565Y-111326443D01*
X147702037Y-111301627D01*
X147684641Y-111125000D01*
X147702037Y-110948373D01*
X147751345Y-110785826D01*
X147753557Y-110778533D01*
X147837221Y-110622011D01*
X147837222Y-110622009D01*
X147869392Y-110582810D01*
X147949814Y-110484814D01*
X148051271Y-110401552D01*
X148087009Y-110372222D01*
X148104913Y-110362652D01*
X148243533Y-110288557D01*
X148300147Y-110271384D01*
X148413373Y-110237037D01*
X148479557Y-110230519D01*
X148545740Y-110224000D01*
X148634260Y-110224000D01*
X148700443Y-110230519D01*
X148700443Y-110230519D01*
G37*
G36*
X146160443Y-110230519D02*
X146226627Y-110237037D01*
X146339853Y-110271384D01*
X146396467Y-110288557D01*
X146535087Y-110362652D01*
X146552991Y-110372222D01*
X146588729Y-110401552D01*
X146690186Y-110484814D01*
X146770608Y-110582810D01*
X146802778Y-110622009D01*
X146802779Y-110622011D01*
X146886443Y-110778533D01*
X146888655Y-110785826D01*
X146937963Y-110948373D01*
X146955359Y-111125000D01*
X146937963Y-111301627D01*
X146930435Y-111326443D01*
X146886443Y-111471467D01*
X146812348Y-111610087D01*
X146802778Y-111627991D01*
X146773448Y-111663729D01*
X146690186Y-111765186D01*
X146588729Y-111848448D01*
X146552991Y-111877778D01*
X146552989Y-111877779D01*
X146396467Y-111961443D01*
X146339853Y-111978616D01*
X146226627Y-112012963D01*
X146160442Y-112019482D01*
X146094260Y-112026000D01*
X146005740Y-112026000D01*
X145939558Y-112019482D01*
X145873373Y-112012963D01*
X145760147Y-111978616D01*
X145703533Y-111961443D01*
X145547011Y-111877779D01*
X145547009Y-111877778D01*
X145511271Y-111848448D01*
X145409814Y-111765186D01*
X145326552Y-111663729D01*
X145297222Y-111627991D01*
X145287652Y-111610087D01*
X145213557Y-111471467D01*
X145169565Y-111326443D01*
X145162037Y-111301627D01*
X145144641Y-111125000D01*
X145162037Y-110948373D01*
X145211345Y-110785826D01*
X145213557Y-110778533D01*
X145297221Y-110622011D01*
X145297222Y-110622009D01*
X145329392Y-110582810D01*
X145409814Y-110484814D01*
X145511271Y-110401552D01*
X145547009Y-110372222D01*
X145564913Y-110362652D01*
X145703533Y-110288557D01*
X145760147Y-110271384D01*
X145873373Y-110237037D01*
X145939557Y-110230519D01*
X146005740Y-110224000D01*
X146094260Y-110224000D01*
X146160443Y-110230519D01*
X146160443Y-110230519D01*
G37*
G36*
X111870442Y-109595518D02*
X111936627Y-109602037D01*
X112039351Y-109633198D01*
X112106467Y-109653557D01*
X112232496Y-109720922D01*
X112262991Y-109737222D01*
X112285309Y-109755538D01*
X112400186Y-109849814D01*
X112483448Y-109951271D01*
X112512778Y-109987009D01*
X112512779Y-109987011D01*
X112596443Y-110143533D01*
X112596443Y-110143534D01*
X112647963Y-110313373D01*
X112665359Y-110490000D01*
X112647963Y-110666627D01*
X112614017Y-110778533D01*
X112596443Y-110836467D01*
X112561600Y-110901653D01*
X112512778Y-110992991D01*
X112483448Y-111028729D01*
X112400186Y-111130186D01*
X112298729Y-111213448D01*
X112262991Y-111242778D01*
X112262989Y-111242779D01*
X112106467Y-111326443D01*
X112049853Y-111343616D01*
X111936627Y-111377963D01*
X111870443Y-111384481D01*
X111804260Y-111391000D01*
X111715740Y-111391000D01*
X111649557Y-111384481D01*
X111583373Y-111377963D01*
X111470147Y-111343616D01*
X111413533Y-111326443D01*
X111257011Y-111242779D01*
X111257009Y-111242778D01*
X111221271Y-111213448D01*
X111119814Y-111130186D01*
X111036552Y-111028729D01*
X111007222Y-110992991D01*
X110958400Y-110901653D01*
X110923557Y-110836467D01*
X110905983Y-110778533D01*
X110872037Y-110666627D01*
X110854641Y-110490000D01*
X110872037Y-110313373D01*
X110923557Y-110143534D01*
X110923557Y-110143533D01*
X111007221Y-109987011D01*
X111007222Y-109987009D01*
X111036552Y-109951271D01*
X111119814Y-109849814D01*
X111234691Y-109755538D01*
X111257009Y-109737222D01*
X111287504Y-109720922D01*
X111413533Y-109653557D01*
X111480649Y-109633198D01*
X111583373Y-109602037D01*
X111649558Y-109595518D01*
X111715740Y-109589000D01*
X111804260Y-109589000D01*
X111870442Y-109595518D01*
X111870442Y-109595518D01*
G37*
G36*
X86470442Y-109595518D02*
X86536627Y-109602037D01*
X86639351Y-109633198D01*
X86706467Y-109653557D01*
X86832496Y-109720922D01*
X86862991Y-109737222D01*
X86885309Y-109755538D01*
X87000186Y-109849814D01*
X87083448Y-109951271D01*
X87112778Y-109987009D01*
X87112779Y-109987011D01*
X87196443Y-110143533D01*
X87196443Y-110143534D01*
X87247963Y-110313373D01*
X87265359Y-110490000D01*
X87247963Y-110666627D01*
X87214017Y-110778533D01*
X87196443Y-110836467D01*
X87161600Y-110901653D01*
X87112778Y-110992991D01*
X87083448Y-111028729D01*
X87000186Y-111130186D01*
X86898729Y-111213448D01*
X86862991Y-111242778D01*
X86862989Y-111242779D01*
X86706467Y-111326443D01*
X86649853Y-111343616D01*
X86536627Y-111377963D01*
X86470443Y-111384481D01*
X86404260Y-111391000D01*
X86315740Y-111391000D01*
X86249557Y-111384481D01*
X86183373Y-111377963D01*
X86070147Y-111343616D01*
X86013533Y-111326443D01*
X85857011Y-111242779D01*
X85857009Y-111242778D01*
X85821271Y-111213448D01*
X85719814Y-111130186D01*
X85636552Y-111028729D01*
X85607222Y-110992991D01*
X85558400Y-110901653D01*
X85523557Y-110836467D01*
X85505983Y-110778533D01*
X85472037Y-110666627D01*
X85454641Y-110490000D01*
X85472037Y-110313373D01*
X85523557Y-110143534D01*
X85523557Y-110143533D01*
X85607221Y-109987011D01*
X85607222Y-109987009D01*
X85636552Y-109951271D01*
X85719814Y-109849814D01*
X85834691Y-109755538D01*
X85857009Y-109737222D01*
X85887504Y-109720922D01*
X86013533Y-109653557D01*
X86080649Y-109633198D01*
X86183373Y-109602037D01*
X86249558Y-109595518D01*
X86315740Y-109589000D01*
X86404260Y-109589000D01*
X86470442Y-109595518D01*
X86470442Y-109595518D01*
G37*
G36*
X129673604Y-109558347D02*
X129710145Y-109569432D01*
X129743820Y-109587431D01*
X129773341Y-109611659D01*
X129797569Y-109641180D01*
X129815568Y-109674855D01*
X129826653Y-109711396D01*
X129831000Y-109755538D01*
X129831000Y-110704462D01*
X129826653Y-110748604D01*
X129815568Y-110785145D01*
X129797569Y-110818820D01*
X129773341Y-110848341D01*
X129743820Y-110872569D01*
X129710145Y-110890568D01*
X129673604Y-110901653D01*
X129629462Y-110906000D01*
X128180538Y-110906000D01*
X128136396Y-110901653D01*
X128099855Y-110890568D01*
X128066180Y-110872569D01*
X128036659Y-110848341D01*
X128012431Y-110818820D01*
X127994432Y-110785145D01*
X127983347Y-110748604D01*
X127979000Y-110704462D01*
X127979000Y-109755538D01*
X127983347Y-109711396D01*
X127994432Y-109674855D01*
X128012431Y-109641180D01*
X128036659Y-109611659D01*
X128066180Y-109587431D01*
X128099855Y-109569432D01*
X128136396Y-109558347D01*
X128180538Y-109554000D01*
X129629462Y-109554000D01*
X129673604Y-109558347D01*
X129673604Y-109558347D01*
G37*
G36*
X123895996Y-107103051D02*
X123929653Y-107113261D01*
X123960667Y-107129838D01*
X123987852Y-107152148D01*
X124010162Y-107179333D01*
X124026739Y-107210347D01*
X124036949Y-107244004D01*
X124041000Y-107285138D01*
X124041000Y-110514862D01*
X124036949Y-110555996D01*
X124026739Y-110589653D01*
X124010162Y-110620667D01*
X123987852Y-110647852D01*
X123960667Y-110670162D01*
X123929653Y-110686739D01*
X123895996Y-110696949D01*
X123854862Y-110701000D01*
X122525138Y-110701000D01*
X122484004Y-110696949D01*
X122450347Y-110686739D01*
X122419333Y-110670162D01*
X122392148Y-110647852D01*
X122369838Y-110620667D01*
X122353261Y-110589653D01*
X122343051Y-110555996D01*
X122339000Y-110514862D01*
X122339000Y-107285138D01*
X122343051Y-107244004D01*
X122353261Y-107210347D01*
X122369838Y-107179333D01*
X122392148Y-107152148D01*
X122419333Y-107129838D01*
X122450347Y-107113261D01*
X122484004Y-107103051D01*
X122525138Y-107099000D01*
X123854862Y-107099000D01*
X123895996Y-107103051D01*
X123895996Y-107103051D01*
G37*
G36*
X148700443Y-107690519D02*
X148766627Y-107697037D01*
X148879853Y-107731384D01*
X148936467Y-107748557D01*
X149075087Y-107822652D01*
X149092991Y-107832222D01*
X149128729Y-107861552D01*
X149230186Y-107944814D01*
X149313448Y-108046271D01*
X149342778Y-108082009D01*
X149342779Y-108082011D01*
X149426443Y-108238533D01*
X149426443Y-108238534D01*
X149477963Y-108408373D01*
X149495359Y-108585000D01*
X149477963Y-108761627D01*
X149470435Y-108786443D01*
X149426443Y-108931467D01*
X149352348Y-109070087D01*
X149342778Y-109087991D01*
X149313448Y-109123729D01*
X149230186Y-109225186D01*
X149128729Y-109308448D01*
X149092991Y-109337778D01*
X149092989Y-109337779D01*
X148936467Y-109421443D01*
X148879853Y-109438616D01*
X148766627Y-109472963D01*
X148700442Y-109479482D01*
X148634260Y-109486000D01*
X148545740Y-109486000D01*
X148479558Y-109479482D01*
X148413373Y-109472963D01*
X148300147Y-109438616D01*
X148243533Y-109421443D01*
X148087011Y-109337779D01*
X148087009Y-109337778D01*
X148051271Y-109308448D01*
X147949814Y-109225186D01*
X147866552Y-109123729D01*
X147837222Y-109087991D01*
X147827652Y-109070087D01*
X147753557Y-108931467D01*
X147709565Y-108786443D01*
X147702037Y-108761627D01*
X147684641Y-108585000D01*
X147702037Y-108408373D01*
X147753557Y-108238534D01*
X147753557Y-108238533D01*
X147837221Y-108082011D01*
X147837222Y-108082009D01*
X147866552Y-108046271D01*
X147949814Y-107944814D01*
X148051271Y-107861552D01*
X148087009Y-107832222D01*
X148104913Y-107822652D01*
X148243533Y-107748557D01*
X148300147Y-107731384D01*
X148413373Y-107697037D01*
X148479557Y-107690519D01*
X148545740Y-107684000D01*
X148634260Y-107684000D01*
X148700443Y-107690519D01*
X148700443Y-107690519D01*
G37*
G36*
X146951000Y-109486000D02*
X145149000Y-109486000D01*
X145149000Y-107684000D01*
X146951000Y-107684000D01*
X146951000Y-109486000D01*
X146951000Y-109486000D01*
G37*
G36*
X111870442Y-107055518D02*
X111936627Y-107062037D01*
X112049853Y-107096384D01*
X112106467Y-107113557D01*
X112224955Y-107176891D01*
X112262991Y-107197222D01*
X112285384Y-107215600D01*
X112400186Y-107309814D01*
X112473230Y-107398820D01*
X112512778Y-107447009D01*
X112512779Y-107447011D01*
X112596443Y-107603533D01*
X112596443Y-107603534D01*
X112647963Y-107773373D01*
X112665359Y-107950000D01*
X112647963Y-108126627D01*
X112614017Y-108238533D01*
X112596443Y-108296467D01*
X112536627Y-108408373D01*
X112512778Y-108452991D01*
X112483448Y-108488729D01*
X112400186Y-108590186D01*
X112298729Y-108673448D01*
X112262991Y-108702778D01*
X112262989Y-108702779D01*
X112106467Y-108786443D01*
X112049853Y-108803616D01*
X111936627Y-108837963D01*
X111870442Y-108844482D01*
X111804260Y-108851000D01*
X111715740Y-108851000D01*
X111649558Y-108844482D01*
X111583373Y-108837963D01*
X111470147Y-108803616D01*
X111413533Y-108786443D01*
X111257011Y-108702779D01*
X111257009Y-108702778D01*
X111221271Y-108673448D01*
X111119814Y-108590186D01*
X111036552Y-108488729D01*
X111007222Y-108452991D01*
X110983373Y-108408373D01*
X110923557Y-108296467D01*
X110905983Y-108238533D01*
X110872037Y-108126627D01*
X110854641Y-107950000D01*
X110872037Y-107773373D01*
X110923557Y-107603534D01*
X110923557Y-107603533D01*
X111007221Y-107447011D01*
X111007222Y-107447009D01*
X111046770Y-107398820D01*
X111119814Y-107309814D01*
X111234616Y-107215600D01*
X111257009Y-107197222D01*
X111295045Y-107176891D01*
X111413533Y-107113557D01*
X111470147Y-107096384D01*
X111583373Y-107062037D01*
X111649558Y-107055518D01*
X111715740Y-107049000D01*
X111804260Y-107049000D01*
X111870442Y-107055518D01*
X111870442Y-107055518D01*
G37*
G36*
X86470442Y-107055518D02*
X86536627Y-107062037D01*
X86649853Y-107096384D01*
X86706467Y-107113557D01*
X86824955Y-107176891D01*
X86862991Y-107197222D01*
X86885384Y-107215600D01*
X87000186Y-107309814D01*
X87073230Y-107398820D01*
X87112778Y-107447009D01*
X87112779Y-107447011D01*
X87196443Y-107603533D01*
X87196443Y-107603534D01*
X87247963Y-107773373D01*
X87265359Y-107950000D01*
X87247963Y-108126627D01*
X87214017Y-108238533D01*
X87196443Y-108296467D01*
X87136627Y-108408373D01*
X87112778Y-108452991D01*
X87083448Y-108488729D01*
X87000186Y-108590186D01*
X86898729Y-108673448D01*
X86862991Y-108702778D01*
X86862989Y-108702779D01*
X86706467Y-108786443D01*
X86649853Y-108803616D01*
X86536627Y-108837963D01*
X86470442Y-108844482D01*
X86404260Y-108851000D01*
X86315740Y-108851000D01*
X86249558Y-108844482D01*
X86183373Y-108837963D01*
X86070147Y-108803616D01*
X86013533Y-108786443D01*
X85857011Y-108702779D01*
X85857009Y-108702778D01*
X85821271Y-108673448D01*
X85719814Y-108590186D01*
X85636552Y-108488729D01*
X85607222Y-108452991D01*
X85583373Y-108408373D01*
X85523557Y-108296467D01*
X85505983Y-108238533D01*
X85472037Y-108126627D01*
X85454641Y-107950000D01*
X85472037Y-107773373D01*
X85523557Y-107603534D01*
X85523557Y-107603533D01*
X85607221Y-107447011D01*
X85607222Y-107447009D01*
X85646770Y-107398820D01*
X85719814Y-107309814D01*
X85834616Y-107215600D01*
X85857009Y-107197222D01*
X85895045Y-107176891D01*
X86013533Y-107113557D01*
X86070147Y-107096384D01*
X86183373Y-107062037D01*
X86249558Y-107055518D01*
X86315740Y-107049000D01*
X86404260Y-107049000D01*
X86470442Y-107055518D01*
X86470442Y-107055518D01*
G37*
G36*
X132213604Y-106138347D02*
X132250145Y-106149432D01*
X132283820Y-106167431D01*
X132313341Y-106191659D01*
X132337569Y-106221180D01*
X132355568Y-106254855D01*
X132366653Y-106291396D01*
X132371000Y-106335538D01*
X132371000Y-107284462D01*
X132366653Y-107328604D01*
X132355568Y-107365145D01*
X132337569Y-107398820D01*
X132313341Y-107428341D01*
X132283820Y-107452569D01*
X132250145Y-107470568D01*
X132213604Y-107481653D01*
X132169462Y-107486000D01*
X130720538Y-107486000D01*
X130676396Y-107481653D01*
X130639855Y-107470568D01*
X130606180Y-107452569D01*
X130576659Y-107428341D01*
X130552431Y-107398820D01*
X130534432Y-107365145D01*
X130523347Y-107328604D01*
X130519000Y-107284462D01*
X130519000Y-106335538D01*
X130523347Y-106291396D01*
X130534432Y-106254855D01*
X130552431Y-106221180D01*
X130576659Y-106191659D01*
X130606180Y-106167431D01*
X130639855Y-106149432D01*
X130676396Y-106138347D01*
X130720538Y-106134000D01*
X132169462Y-106134000D01*
X132213604Y-106138347D01*
X132213604Y-106138347D01*
G37*
G36*
X111870443Y-104515519D02*
X111936627Y-104522037D01*
X112049853Y-104556384D01*
X112106467Y-104573557D01*
X112168663Y-104606802D01*
X112262991Y-104657222D01*
X112292760Y-104681653D01*
X112400186Y-104769814D01*
X112483448Y-104871271D01*
X112512778Y-104907009D01*
X112512779Y-104907011D01*
X112596443Y-105063533D01*
X112596443Y-105063534D01*
X112647963Y-105233373D01*
X112665359Y-105410000D01*
X112647963Y-105586627D01*
X112613616Y-105699853D01*
X112596443Y-105756467D01*
X112522348Y-105895087D01*
X112512778Y-105912991D01*
X112483448Y-105948729D01*
X112400186Y-106050186D01*
X112298729Y-106133448D01*
X112262991Y-106162778D01*
X112262989Y-106162779D01*
X112106467Y-106246443D01*
X112049853Y-106263616D01*
X111936627Y-106297963D01*
X111870442Y-106304482D01*
X111804260Y-106311000D01*
X111715740Y-106311000D01*
X111649558Y-106304482D01*
X111583373Y-106297963D01*
X111470147Y-106263616D01*
X111413533Y-106246443D01*
X111257011Y-106162779D01*
X111257009Y-106162778D01*
X111221271Y-106133448D01*
X111119814Y-106050186D01*
X111036552Y-105948729D01*
X111007222Y-105912991D01*
X110997652Y-105895087D01*
X110923557Y-105756467D01*
X110906384Y-105699853D01*
X110872037Y-105586627D01*
X110854641Y-105410000D01*
X110872037Y-105233373D01*
X110923557Y-105063534D01*
X110923557Y-105063533D01*
X111007221Y-104907011D01*
X111007222Y-104907009D01*
X111036552Y-104871271D01*
X111119814Y-104769814D01*
X111227240Y-104681653D01*
X111257009Y-104657222D01*
X111351337Y-104606802D01*
X111413533Y-104573557D01*
X111470147Y-104556384D01*
X111583373Y-104522037D01*
X111649557Y-104515519D01*
X111715740Y-104509000D01*
X111804260Y-104509000D01*
X111870443Y-104515519D01*
X111870443Y-104515519D01*
G37*
G36*
X86470443Y-104515519D02*
X86536627Y-104522037D01*
X86649853Y-104556384D01*
X86706467Y-104573557D01*
X86768663Y-104606802D01*
X86862991Y-104657222D01*
X86892760Y-104681653D01*
X87000186Y-104769814D01*
X87083448Y-104871271D01*
X87112778Y-104907009D01*
X87112779Y-104907011D01*
X87196443Y-105063533D01*
X87196443Y-105063534D01*
X87247963Y-105233373D01*
X87265359Y-105410000D01*
X87247963Y-105586627D01*
X87213616Y-105699853D01*
X87196443Y-105756467D01*
X87122348Y-105895087D01*
X87112778Y-105912991D01*
X87083448Y-105948729D01*
X87000186Y-106050186D01*
X86898729Y-106133448D01*
X86862991Y-106162778D01*
X86862989Y-106162779D01*
X86706467Y-106246443D01*
X86649853Y-106263616D01*
X86536627Y-106297963D01*
X86470442Y-106304482D01*
X86404260Y-106311000D01*
X86315740Y-106311000D01*
X86249558Y-106304482D01*
X86183373Y-106297963D01*
X86070147Y-106263616D01*
X86013533Y-106246443D01*
X85857011Y-106162779D01*
X85857009Y-106162778D01*
X85821271Y-106133448D01*
X85719814Y-106050186D01*
X85636552Y-105948729D01*
X85607222Y-105912991D01*
X85597652Y-105895087D01*
X85523557Y-105756467D01*
X85506384Y-105699853D01*
X85472037Y-105586627D01*
X85454641Y-105410000D01*
X85472037Y-105233373D01*
X85523557Y-105063534D01*
X85523557Y-105063533D01*
X85607221Y-104907011D01*
X85607222Y-104907009D01*
X85636552Y-104871271D01*
X85719814Y-104769814D01*
X85827240Y-104681653D01*
X85857009Y-104657222D01*
X85951337Y-104606802D01*
X86013533Y-104573557D01*
X86070147Y-104556384D01*
X86183373Y-104522037D01*
X86249557Y-104515519D01*
X86315740Y-104509000D01*
X86404260Y-104509000D01*
X86470443Y-104515519D01*
X86470443Y-104515519D01*
G37*
G36*
X132213604Y-103338347D02*
X132250145Y-103349432D01*
X132283820Y-103367431D01*
X132313341Y-103391659D01*
X132337569Y-103421180D01*
X132355568Y-103454855D01*
X132366653Y-103491396D01*
X132371000Y-103535538D01*
X132371000Y-104484462D01*
X132366653Y-104528604D01*
X132355568Y-104565145D01*
X132337569Y-104598820D01*
X132313341Y-104628341D01*
X132283820Y-104652569D01*
X132250145Y-104670568D01*
X132213604Y-104681653D01*
X132169462Y-104686000D01*
X130720538Y-104686000D01*
X130676396Y-104681653D01*
X130639855Y-104670568D01*
X130606180Y-104652569D01*
X130576659Y-104628341D01*
X130552431Y-104598820D01*
X130534432Y-104565145D01*
X130523347Y-104528604D01*
X130519000Y-104484462D01*
X130519000Y-103535538D01*
X130523347Y-103491396D01*
X130534432Y-103454855D01*
X130552431Y-103421180D01*
X130576659Y-103391659D01*
X130606180Y-103367431D01*
X130639855Y-103349432D01*
X130676396Y-103338347D01*
X130720538Y-103334000D01*
X132169462Y-103334000D01*
X132213604Y-103338347D01*
X132213604Y-103338347D01*
G37*
G36*
X86470442Y-101975518D02*
X86536627Y-101982037D01*
X86649853Y-102016384D01*
X86706467Y-102033557D01*
X86845087Y-102107652D01*
X86862991Y-102117222D01*
X86898729Y-102146552D01*
X87000186Y-102229814D01*
X87083448Y-102331271D01*
X87112778Y-102367009D01*
X87112779Y-102367011D01*
X87196443Y-102523533D01*
X87196443Y-102523534D01*
X87247963Y-102693373D01*
X87265359Y-102870000D01*
X87247963Y-103046627D01*
X87213616Y-103159853D01*
X87196443Y-103216467D01*
X87133619Y-103334000D01*
X87112778Y-103372991D01*
X87097457Y-103391659D01*
X87000186Y-103510186D01*
X86898729Y-103593448D01*
X86862991Y-103622778D01*
X86862989Y-103622779D01*
X86706467Y-103706443D01*
X86649853Y-103723616D01*
X86536627Y-103757963D01*
X86470443Y-103764481D01*
X86404260Y-103771000D01*
X86315740Y-103771000D01*
X86249557Y-103764481D01*
X86183373Y-103757963D01*
X86070147Y-103723616D01*
X86013533Y-103706443D01*
X85857011Y-103622779D01*
X85857009Y-103622778D01*
X85821271Y-103593448D01*
X85719814Y-103510186D01*
X85622543Y-103391659D01*
X85607222Y-103372991D01*
X85586381Y-103334000D01*
X85523557Y-103216467D01*
X85506384Y-103159853D01*
X85472037Y-103046627D01*
X85454641Y-102870000D01*
X85472037Y-102693373D01*
X85523557Y-102523534D01*
X85523557Y-102523533D01*
X85607221Y-102367011D01*
X85607222Y-102367009D01*
X85636552Y-102331271D01*
X85719814Y-102229814D01*
X85821271Y-102146552D01*
X85857009Y-102117222D01*
X85874913Y-102107652D01*
X86013533Y-102033557D01*
X86070147Y-102016384D01*
X86183373Y-101982037D01*
X86249558Y-101975518D01*
X86315740Y-101969000D01*
X86404260Y-101969000D01*
X86470442Y-101975518D01*
X86470442Y-101975518D01*
G37*
G36*
X111870442Y-101975518D02*
X111936627Y-101982037D01*
X112049853Y-102016384D01*
X112106467Y-102033557D01*
X112245087Y-102107652D01*
X112262991Y-102117222D01*
X112298729Y-102146552D01*
X112400186Y-102229814D01*
X112483448Y-102331271D01*
X112512778Y-102367009D01*
X112512779Y-102367011D01*
X112596443Y-102523533D01*
X112596443Y-102523534D01*
X112647963Y-102693373D01*
X112665359Y-102870000D01*
X112647963Y-103046627D01*
X112613616Y-103159853D01*
X112596443Y-103216467D01*
X112533619Y-103334000D01*
X112512778Y-103372991D01*
X112497457Y-103391659D01*
X112400186Y-103510186D01*
X112298729Y-103593448D01*
X112262991Y-103622778D01*
X112262989Y-103622779D01*
X112106467Y-103706443D01*
X112049853Y-103723616D01*
X111936627Y-103757963D01*
X111870443Y-103764481D01*
X111804260Y-103771000D01*
X111715740Y-103771000D01*
X111649557Y-103764481D01*
X111583373Y-103757963D01*
X111470147Y-103723616D01*
X111413533Y-103706443D01*
X111257011Y-103622779D01*
X111257009Y-103622778D01*
X111221271Y-103593448D01*
X111119814Y-103510186D01*
X111022543Y-103391659D01*
X111007222Y-103372991D01*
X110986381Y-103334000D01*
X110923557Y-103216467D01*
X110906384Y-103159853D01*
X110872037Y-103046627D01*
X110854641Y-102870000D01*
X110872037Y-102693373D01*
X110923557Y-102523534D01*
X110923557Y-102523533D01*
X111007221Y-102367011D01*
X111007222Y-102367009D01*
X111036552Y-102331271D01*
X111119814Y-102229814D01*
X111221271Y-102146552D01*
X111257009Y-102117222D01*
X111274913Y-102107652D01*
X111413533Y-102033557D01*
X111470147Y-102016384D01*
X111583373Y-101982037D01*
X111649558Y-101975518D01*
X111715740Y-101969000D01*
X111804260Y-101969000D01*
X111870442Y-101975518D01*
X111870442Y-101975518D01*
G37*
G36*
X148700442Y-100070518D02*
X148766627Y-100077037D01*
X148879853Y-100111384D01*
X148936467Y-100128557D01*
X149075087Y-100202652D01*
X149092991Y-100212222D01*
X149128729Y-100241552D01*
X149230186Y-100324814D01*
X149313448Y-100426271D01*
X149342778Y-100462009D01*
X149342779Y-100462011D01*
X149426443Y-100618533D01*
X149426443Y-100618534D01*
X149477963Y-100788373D01*
X149495359Y-100965000D01*
X149477963Y-101141627D01*
X149470435Y-101166443D01*
X149426443Y-101311467D01*
X149352348Y-101450087D01*
X149342778Y-101467991D01*
X149313448Y-101503729D01*
X149230186Y-101605186D01*
X149128729Y-101688448D01*
X149092991Y-101717778D01*
X149092989Y-101717779D01*
X148936467Y-101801443D01*
X148879853Y-101818616D01*
X148766627Y-101852963D01*
X148700443Y-101859481D01*
X148634260Y-101866000D01*
X148545740Y-101866000D01*
X148479558Y-101859482D01*
X148413373Y-101852963D01*
X148300147Y-101818616D01*
X148243533Y-101801443D01*
X148087011Y-101717779D01*
X148087009Y-101717778D01*
X148051271Y-101688448D01*
X147949814Y-101605186D01*
X147866552Y-101503729D01*
X147837222Y-101467991D01*
X147827652Y-101450087D01*
X147753557Y-101311467D01*
X147709565Y-101166443D01*
X147702037Y-101141627D01*
X147684641Y-100965000D01*
X147702037Y-100788373D01*
X147753557Y-100618534D01*
X147753557Y-100618533D01*
X147837221Y-100462011D01*
X147837222Y-100462009D01*
X147866552Y-100426271D01*
X147949814Y-100324814D01*
X148051271Y-100241552D01*
X148087009Y-100212222D01*
X148104913Y-100202652D01*
X148243533Y-100128557D01*
X148300147Y-100111384D01*
X148413373Y-100077037D01*
X148479557Y-100070519D01*
X148545740Y-100064000D01*
X148634260Y-100064000D01*
X148700442Y-100070518D01*
X148700442Y-100070518D01*
G37*
G36*
X146160442Y-100070518D02*
X146226627Y-100077037D01*
X146339853Y-100111384D01*
X146396467Y-100128557D01*
X146535087Y-100202652D01*
X146552991Y-100212222D01*
X146588729Y-100241552D01*
X146690186Y-100324814D01*
X146773448Y-100426271D01*
X146802778Y-100462009D01*
X146802779Y-100462011D01*
X146886443Y-100618533D01*
X146886443Y-100618534D01*
X146937963Y-100788373D01*
X146955359Y-100965000D01*
X146937963Y-101141627D01*
X146930435Y-101166443D01*
X146886443Y-101311467D01*
X146812348Y-101450087D01*
X146802778Y-101467991D01*
X146773448Y-101503729D01*
X146690186Y-101605186D01*
X146588729Y-101688448D01*
X146552991Y-101717778D01*
X146552989Y-101717779D01*
X146396467Y-101801443D01*
X146339853Y-101818616D01*
X146226627Y-101852963D01*
X146160443Y-101859481D01*
X146094260Y-101866000D01*
X146005740Y-101866000D01*
X145939558Y-101859482D01*
X145873373Y-101852963D01*
X145760147Y-101818616D01*
X145703533Y-101801443D01*
X145547011Y-101717779D01*
X145547009Y-101717778D01*
X145511271Y-101688448D01*
X145409814Y-101605186D01*
X145326552Y-101503729D01*
X145297222Y-101467991D01*
X145287652Y-101450087D01*
X145213557Y-101311467D01*
X145169565Y-101166443D01*
X145162037Y-101141627D01*
X145144641Y-100965000D01*
X145162037Y-100788373D01*
X145213557Y-100618534D01*
X145213557Y-100618533D01*
X145297221Y-100462011D01*
X145297222Y-100462009D01*
X145326552Y-100426271D01*
X145409814Y-100324814D01*
X145511271Y-100241552D01*
X145547009Y-100212222D01*
X145564913Y-100202652D01*
X145703533Y-100128557D01*
X145760147Y-100111384D01*
X145873373Y-100077037D01*
X145939557Y-100070519D01*
X146005740Y-100064000D01*
X146094260Y-100064000D01*
X146160442Y-100070518D01*
X146160442Y-100070518D01*
G37*
G36*
X86470443Y-99435519D02*
X86536627Y-99442037D01*
X86649853Y-99476384D01*
X86706467Y-99493557D01*
X86845087Y-99567652D01*
X86862991Y-99577222D01*
X86898729Y-99606552D01*
X87000186Y-99689814D01*
X87083448Y-99791271D01*
X87112778Y-99827009D01*
X87112779Y-99827011D01*
X87196443Y-99983533D01*
X87196443Y-99983534D01*
X87247963Y-100153373D01*
X87265359Y-100330000D01*
X87247963Y-100506627D01*
X87214017Y-100618533D01*
X87196443Y-100676467D01*
X87136627Y-100788373D01*
X87112778Y-100832991D01*
X87083448Y-100868729D01*
X87000186Y-100970186D01*
X86898729Y-101053448D01*
X86862991Y-101082778D01*
X86862989Y-101082779D01*
X86706467Y-101166443D01*
X86649853Y-101183616D01*
X86536627Y-101217963D01*
X86470443Y-101224481D01*
X86404260Y-101231000D01*
X86315740Y-101231000D01*
X86249558Y-101224482D01*
X86183373Y-101217963D01*
X86070147Y-101183616D01*
X86013533Y-101166443D01*
X85857011Y-101082779D01*
X85857009Y-101082778D01*
X85821271Y-101053448D01*
X85719814Y-100970186D01*
X85636552Y-100868729D01*
X85607222Y-100832991D01*
X85583373Y-100788373D01*
X85523557Y-100676467D01*
X85505983Y-100618533D01*
X85472037Y-100506627D01*
X85454641Y-100330000D01*
X85472037Y-100153373D01*
X85523557Y-99983534D01*
X85523557Y-99983533D01*
X85607221Y-99827011D01*
X85607222Y-99827009D01*
X85636552Y-99791271D01*
X85719814Y-99689814D01*
X85821271Y-99606552D01*
X85857009Y-99577222D01*
X85874913Y-99567652D01*
X86013533Y-99493557D01*
X86070147Y-99476384D01*
X86183373Y-99442037D01*
X86249558Y-99435518D01*
X86315740Y-99429000D01*
X86404260Y-99429000D01*
X86470443Y-99435519D01*
X86470443Y-99435519D01*
G37*
G36*
X111870443Y-99435519D02*
X111936627Y-99442037D01*
X112049853Y-99476384D01*
X112106467Y-99493557D01*
X112245087Y-99567652D01*
X112262991Y-99577222D01*
X112298729Y-99606552D01*
X112400186Y-99689814D01*
X112483448Y-99791271D01*
X112512778Y-99827009D01*
X112512779Y-99827011D01*
X112596443Y-99983533D01*
X112596443Y-99983534D01*
X112647963Y-100153373D01*
X112665359Y-100330000D01*
X112647963Y-100506627D01*
X112614017Y-100618533D01*
X112596443Y-100676467D01*
X112536627Y-100788373D01*
X112512778Y-100832991D01*
X112483448Y-100868729D01*
X112400186Y-100970186D01*
X112298729Y-101053448D01*
X112262991Y-101082778D01*
X112262989Y-101082779D01*
X112106467Y-101166443D01*
X112049853Y-101183616D01*
X111936627Y-101217963D01*
X111870443Y-101224481D01*
X111804260Y-101231000D01*
X111715740Y-101231000D01*
X111649558Y-101224482D01*
X111583373Y-101217963D01*
X111470147Y-101183616D01*
X111413533Y-101166443D01*
X111257011Y-101082779D01*
X111257009Y-101082778D01*
X111221271Y-101053448D01*
X111119814Y-100970186D01*
X111036552Y-100868729D01*
X111007222Y-100832991D01*
X110983373Y-100788373D01*
X110923557Y-100676467D01*
X110905983Y-100618533D01*
X110872037Y-100506627D01*
X110854641Y-100330000D01*
X110872037Y-100153373D01*
X110923557Y-99983534D01*
X110923557Y-99983533D01*
X111007221Y-99827011D01*
X111007222Y-99827009D01*
X111036552Y-99791271D01*
X111119814Y-99689814D01*
X111221271Y-99606552D01*
X111257009Y-99577222D01*
X111274913Y-99567652D01*
X111413533Y-99493557D01*
X111470147Y-99476384D01*
X111583373Y-99442037D01*
X111649558Y-99435518D01*
X111715740Y-99429000D01*
X111804260Y-99429000D01*
X111870443Y-99435519D01*
X111870443Y-99435519D01*
G37*
G36*
X146160442Y-97530518D02*
X146226627Y-97537037D01*
X146339853Y-97571384D01*
X146396467Y-97588557D01*
X146535087Y-97662652D01*
X146552991Y-97672222D01*
X146588729Y-97701552D01*
X146690186Y-97784814D01*
X146773448Y-97886271D01*
X146802778Y-97922009D01*
X146802779Y-97922011D01*
X146886443Y-98078533D01*
X146886443Y-98078534D01*
X146937963Y-98248373D01*
X146955359Y-98425000D01*
X146937963Y-98601627D01*
X146930435Y-98626443D01*
X146886443Y-98771467D01*
X146812348Y-98910087D01*
X146802778Y-98927991D01*
X146773448Y-98963729D01*
X146690186Y-99065186D01*
X146588729Y-99148448D01*
X146552991Y-99177778D01*
X146552989Y-99177779D01*
X146396467Y-99261443D01*
X146339853Y-99278616D01*
X146226627Y-99312963D01*
X146160442Y-99319482D01*
X146094260Y-99326000D01*
X146005740Y-99326000D01*
X145939557Y-99319481D01*
X145873373Y-99312963D01*
X145760147Y-99278616D01*
X145703533Y-99261443D01*
X145547011Y-99177779D01*
X145547009Y-99177778D01*
X145511271Y-99148448D01*
X145409814Y-99065186D01*
X145326552Y-98963729D01*
X145297222Y-98927991D01*
X145287652Y-98910087D01*
X145213557Y-98771467D01*
X145169565Y-98626443D01*
X145162037Y-98601627D01*
X145144641Y-98425000D01*
X145162037Y-98248373D01*
X145213557Y-98078534D01*
X145213557Y-98078533D01*
X145297221Y-97922011D01*
X145297222Y-97922009D01*
X145326552Y-97886271D01*
X145409814Y-97784814D01*
X145511271Y-97701552D01*
X145547009Y-97672222D01*
X145564913Y-97662652D01*
X145703533Y-97588557D01*
X145760147Y-97571384D01*
X145873373Y-97537037D01*
X145939558Y-97530518D01*
X146005740Y-97524000D01*
X146094260Y-97524000D01*
X146160442Y-97530518D01*
X146160442Y-97530518D01*
G37*
G36*
X148700442Y-97530518D02*
X148766627Y-97537037D01*
X148879853Y-97571384D01*
X148936467Y-97588557D01*
X149075087Y-97662652D01*
X149092991Y-97672222D01*
X149128729Y-97701552D01*
X149230186Y-97784814D01*
X149313448Y-97886271D01*
X149342778Y-97922009D01*
X149342779Y-97922011D01*
X149426443Y-98078533D01*
X149426443Y-98078534D01*
X149477963Y-98248373D01*
X149495359Y-98425000D01*
X149477963Y-98601627D01*
X149470435Y-98626443D01*
X149426443Y-98771467D01*
X149352348Y-98910087D01*
X149342778Y-98927991D01*
X149313448Y-98963729D01*
X149230186Y-99065186D01*
X149128729Y-99148448D01*
X149092991Y-99177778D01*
X149092989Y-99177779D01*
X148936467Y-99261443D01*
X148879853Y-99278616D01*
X148766627Y-99312963D01*
X148700442Y-99319482D01*
X148634260Y-99326000D01*
X148545740Y-99326000D01*
X148479557Y-99319481D01*
X148413373Y-99312963D01*
X148300147Y-99278616D01*
X148243533Y-99261443D01*
X148087011Y-99177779D01*
X148087009Y-99177778D01*
X148051271Y-99148448D01*
X147949814Y-99065186D01*
X147866552Y-98963729D01*
X147837222Y-98927991D01*
X147827652Y-98910087D01*
X147753557Y-98771467D01*
X147709565Y-98626443D01*
X147702037Y-98601627D01*
X147684641Y-98425000D01*
X147702037Y-98248373D01*
X147753557Y-98078534D01*
X147753557Y-98078533D01*
X147837221Y-97922011D01*
X147837222Y-97922009D01*
X147866552Y-97886271D01*
X147949814Y-97784814D01*
X148051271Y-97701552D01*
X148087009Y-97672222D01*
X148104913Y-97662652D01*
X148243533Y-97588557D01*
X148300147Y-97571384D01*
X148413373Y-97537037D01*
X148479558Y-97530518D01*
X148545740Y-97524000D01*
X148634260Y-97524000D01*
X148700442Y-97530518D01*
X148700442Y-97530518D01*
G37*
G36*
X86470442Y-96895518D02*
X86536627Y-96902037D01*
X86649853Y-96936384D01*
X86706467Y-96953557D01*
X86845087Y-97027652D01*
X86862991Y-97037222D01*
X86898729Y-97066552D01*
X87000186Y-97149814D01*
X87083448Y-97251271D01*
X87112778Y-97287009D01*
X87112779Y-97287011D01*
X87196443Y-97443533D01*
X87196443Y-97443534D01*
X87247963Y-97613373D01*
X87265359Y-97790000D01*
X87247963Y-97966627D01*
X87214017Y-98078533D01*
X87196443Y-98136467D01*
X87136627Y-98248373D01*
X87112778Y-98292991D01*
X87083448Y-98328729D01*
X87000186Y-98430186D01*
X86898729Y-98513448D01*
X86862991Y-98542778D01*
X86862989Y-98542779D01*
X86706467Y-98626443D01*
X86649853Y-98643616D01*
X86536627Y-98677963D01*
X86470442Y-98684482D01*
X86404260Y-98691000D01*
X86315740Y-98691000D01*
X86249558Y-98684482D01*
X86183373Y-98677963D01*
X86070147Y-98643616D01*
X86013533Y-98626443D01*
X85857011Y-98542779D01*
X85857009Y-98542778D01*
X85821271Y-98513448D01*
X85719814Y-98430186D01*
X85636552Y-98328729D01*
X85607222Y-98292991D01*
X85583373Y-98248373D01*
X85523557Y-98136467D01*
X85505983Y-98078533D01*
X85472037Y-97966627D01*
X85454641Y-97790000D01*
X85472037Y-97613373D01*
X85523557Y-97443534D01*
X85523557Y-97443533D01*
X85607221Y-97287011D01*
X85607222Y-97287009D01*
X85636552Y-97251271D01*
X85719814Y-97149814D01*
X85821271Y-97066552D01*
X85857009Y-97037222D01*
X85874913Y-97027652D01*
X86013533Y-96953557D01*
X86070147Y-96936384D01*
X86183373Y-96902037D01*
X86249558Y-96895518D01*
X86315740Y-96889000D01*
X86404260Y-96889000D01*
X86470442Y-96895518D01*
X86470442Y-96895518D01*
G37*
G36*
X111870442Y-96895518D02*
X111936627Y-96902037D01*
X112049853Y-96936384D01*
X112106467Y-96953557D01*
X112245087Y-97027652D01*
X112262991Y-97037222D01*
X112298729Y-97066552D01*
X112400186Y-97149814D01*
X112483448Y-97251271D01*
X112512778Y-97287009D01*
X112512779Y-97287011D01*
X112596443Y-97443533D01*
X112596443Y-97443534D01*
X112647963Y-97613373D01*
X112665359Y-97790000D01*
X112647963Y-97966627D01*
X112614017Y-98078533D01*
X112596443Y-98136467D01*
X112536627Y-98248373D01*
X112512778Y-98292991D01*
X112483448Y-98328729D01*
X112400186Y-98430186D01*
X112298729Y-98513448D01*
X112262991Y-98542778D01*
X112262989Y-98542779D01*
X112106467Y-98626443D01*
X112049853Y-98643616D01*
X111936627Y-98677963D01*
X111870442Y-98684482D01*
X111804260Y-98691000D01*
X111715740Y-98691000D01*
X111649558Y-98684482D01*
X111583373Y-98677963D01*
X111470147Y-98643616D01*
X111413533Y-98626443D01*
X111257011Y-98542779D01*
X111257009Y-98542778D01*
X111221271Y-98513448D01*
X111119814Y-98430186D01*
X111036552Y-98328729D01*
X111007222Y-98292991D01*
X110983373Y-98248373D01*
X110923557Y-98136467D01*
X110905983Y-98078533D01*
X110872037Y-97966627D01*
X110854641Y-97790000D01*
X110872037Y-97613373D01*
X110923557Y-97443534D01*
X110923557Y-97443533D01*
X111007221Y-97287011D01*
X111007222Y-97287009D01*
X111036552Y-97251271D01*
X111119814Y-97149814D01*
X111221271Y-97066552D01*
X111257009Y-97037222D01*
X111274913Y-97027652D01*
X111413533Y-96953557D01*
X111470147Y-96936384D01*
X111583373Y-96902037D01*
X111649558Y-96895518D01*
X111715740Y-96889000D01*
X111804260Y-96889000D01*
X111870442Y-96895518D01*
X111870442Y-96895518D01*
G37*
G36*
X148700443Y-94990519D02*
X148766627Y-94997037D01*
X148879853Y-95031384D01*
X148936467Y-95048557D01*
X149075087Y-95122652D01*
X149092991Y-95132222D01*
X149128729Y-95161552D01*
X149230186Y-95244814D01*
X149313448Y-95346271D01*
X149342778Y-95382009D01*
X149342779Y-95382011D01*
X149426443Y-95538533D01*
X149426443Y-95538534D01*
X149477963Y-95708373D01*
X149495359Y-95885000D01*
X149477963Y-96061627D01*
X149470435Y-96086443D01*
X149426443Y-96231467D01*
X149352348Y-96370087D01*
X149342778Y-96387991D01*
X149313448Y-96423729D01*
X149230186Y-96525186D01*
X149128729Y-96608448D01*
X149092991Y-96637778D01*
X149092989Y-96637779D01*
X148936467Y-96721443D01*
X148879853Y-96738616D01*
X148766627Y-96772963D01*
X148700442Y-96779482D01*
X148634260Y-96786000D01*
X148545740Y-96786000D01*
X148479558Y-96779482D01*
X148413373Y-96772963D01*
X148300147Y-96738616D01*
X148243533Y-96721443D01*
X148087011Y-96637779D01*
X148087009Y-96637778D01*
X148051271Y-96608448D01*
X147949814Y-96525186D01*
X147866552Y-96423729D01*
X147837222Y-96387991D01*
X147827652Y-96370087D01*
X147753557Y-96231467D01*
X147709565Y-96086443D01*
X147702037Y-96061627D01*
X147684641Y-95885000D01*
X147702037Y-95708373D01*
X147753557Y-95538534D01*
X147753557Y-95538533D01*
X147837221Y-95382011D01*
X147837222Y-95382009D01*
X147866552Y-95346271D01*
X147949814Y-95244814D01*
X148051271Y-95161552D01*
X148087009Y-95132222D01*
X148104913Y-95122652D01*
X148243533Y-95048557D01*
X148300147Y-95031384D01*
X148413373Y-94997037D01*
X148479557Y-94990519D01*
X148545740Y-94984000D01*
X148634260Y-94984000D01*
X148700443Y-94990519D01*
X148700443Y-94990519D01*
G37*
G36*
X146160443Y-94990519D02*
X146226627Y-94997037D01*
X146339853Y-95031384D01*
X146396467Y-95048557D01*
X146535087Y-95122652D01*
X146552991Y-95132222D01*
X146588729Y-95161552D01*
X146690186Y-95244814D01*
X146773448Y-95346271D01*
X146802778Y-95382009D01*
X146802779Y-95382011D01*
X146886443Y-95538533D01*
X146886443Y-95538534D01*
X146937963Y-95708373D01*
X146955359Y-95885000D01*
X146937963Y-96061627D01*
X146930435Y-96086443D01*
X146886443Y-96231467D01*
X146812348Y-96370087D01*
X146802778Y-96387991D01*
X146773448Y-96423729D01*
X146690186Y-96525186D01*
X146588729Y-96608448D01*
X146552991Y-96637778D01*
X146552989Y-96637779D01*
X146396467Y-96721443D01*
X146339853Y-96738616D01*
X146226627Y-96772963D01*
X146160442Y-96779482D01*
X146094260Y-96786000D01*
X146005740Y-96786000D01*
X145939558Y-96779482D01*
X145873373Y-96772963D01*
X145760147Y-96738616D01*
X145703533Y-96721443D01*
X145547011Y-96637779D01*
X145547009Y-96637778D01*
X145511271Y-96608448D01*
X145409814Y-96525186D01*
X145326552Y-96423729D01*
X145297222Y-96387991D01*
X145287652Y-96370087D01*
X145213557Y-96231467D01*
X145169565Y-96086443D01*
X145162037Y-96061627D01*
X145144641Y-95885000D01*
X145162037Y-95708373D01*
X145213557Y-95538534D01*
X145213557Y-95538533D01*
X145297221Y-95382011D01*
X145297222Y-95382009D01*
X145326552Y-95346271D01*
X145409814Y-95244814D01*
X145511271Y-95161552D01*
X145547009Y-95132222D01*
X145564913Y-95122652D01*
X145703533Y-95048557D01*
X145760147Y-95031384D01*
X145873373Y-94997037D01*
X145939557Y-94990519D01*
X146005740Y-94984000D01*
X146094260Y-94984000D01*
X146160443Y-94990519D01*
X146160443Y-94990519D01*
G37*
G36*
X111870442Y-94355518D02*
X111936627Y-94362037D01*
X112049853Y-94396384D01*
X112106467Y-94413557D01*
X112245087Y-94487652D01*
X112262991Y-94497222D01*
X112298729Y-94526552D01*
X112400186Y-94609814D01*
X112483448Y-94711271D01*
X112512778Y-94747009D01*
X112512779Y-94747011D01*
X112596443Y-94903533D01*
X112596443Y-94903534D01*
X112647963Y-95073373D01*
X112665359Y-95250000D01*
X112647963Y-95426627D01*
X112614017Y-95538533D01*
X112596443Y-95596467D01*
X112536627Y-95708373D01*
X112512778Y-95752991D01*
X112483448Y-95788729D01*
X112400186Y-95890186D01*
X112298729Y-95973448D01*
X112262991Y-96002778D01*
X112262989Y-96002779D01*
X112106467Y-96086443D01*
X112049853Y-96103616D01*
X111936627Y-96137963D01*
X111870443Y-96144481D01*
X111804260Y-96151000D01*
X111715740Y-96151000D01*
X111649558Y-96144482D01*
X111583373Y-96137963D01*
X111470147Y-96103616D01*
X111413533Y-96086443D01*
X111257011Y-96002779D01*
X111257009Y-96002778D01*
X111221271Y-95973448D01*
X111119814Y-95890186D01*
X111036552Y-95788729D01*
X111007222Y-95752991D01*
X110983373Y-95708373D01*
X110923557Y-95596467D01*
X110905983Y-95538533D01*
X110872037Y-95426627D01*
X110854641Y-95250000D01*
X110872037Y-95073373D01*
X110923557Y-94903534D01*
X110923557Y-94903533D01*
X111007221Y-94747011D01*
X111007222Y-94747009D01*
X111036552Y-94711271D01*
X111119814Y-94609814D01*
X111221271Y-94526552D01*
X111257009Y-94497222D01*
X111274913Y-94487652D01*
X111413533Y-94413557D01*
X111470147Y-94396384D01*
X111583373Y-94362037D01*
X111649558Y-94355518D01*
X111715740Y-94349000D01*
X111804260Y-94349000D01*
X111870442Y-94355518D01*
X111870442Y-94355518D01*
G37*
G36*
X86470442Y-94355518D02*
X86536627Y-94362037D01*
X86649853Y-94396384D01*
X86706467Y-94413557D01*
X86845087Y-94487652D01*
X86862991Y-94497222D01*
X86898729Y-94526552D01*
X87000186Y-94609814D01*
X87083448Y-94711271D01*
X87112778Y-94747009D01*
X87112779Y-94747011D01*
X87196443Y-94903533D01*
X87196443Y-94903534D01*
X87247963Y-95073373D01*
X87265359Y-95250000D01*
X87247963Y-95426627D01*
X87214017Y-95538533D01*
X87196443Y-95596467D01*
X87136627Y-95708373D01*
X87112778Y-95752991D01*
X87083448Y-95788729D01*
X87000186Y-95890186D01*
X86898729Y-95973448D01*
X86862991Y-96002778D01*
X86862989Y-96002779D01*
X86706467Y-96086443D01*
X86649853Y-96103616D01*
X86536627Y-96137963D01*
X86470442Y-96144482D01*
X86404260Y-96151000D01*
X86315740Y-96151000D01*
X86249558Y-96144482D01*
X86183373Y-96137963D01*
X86070147Y-96103616D01*
X86013533Y-96086443D01*
X85857011Y-96002779D01*
X85857009Y-96002778D01*
X85821271Y-95973448D01*
X85719814Y-95890186D01*
X85636552Y-95788729D01*
X85607222Y-95752991D01*
X85583373Y-95708373D01*
X85523557Y-95596467D01*
X85505983Y-95538533D01*
X85472037Y-95426627D01*
X85454641Y-95250000D01*
X85472037Y-95073373D01*
X85523557Y-94903534D01*
X85523557Y-94903533D01*
X85607221Y-94747011D01*
X85607222Y-94747009D01*
X85636552Y-94711271D01*
X85719814Y-94609814D01*
X85821271Y-94526552D01*
X85857009Y-94497222D01*
X85874913Y-94487652D01*
X86013533Y-94413557D01*
X86070147Y-94396384D01*
X86183373Y-94362037D01*
X86249558Y-94355518D01*
X86315740Y-94349000D01*
X86404260Y-94349000D01*
X86470442Y-94355518D01*
X86470442Y-94355518D01*
G37*
G36*
X146951000Y-94246000D02*
X145149000Y-94246000D01*
X145149000Y-92444000D01*
X146951000Y-92444000D01*
X146951000Y-94246000D01*
X146951000Y-94246000D01*
G37*
G36*
X148700443Y-92450519D02*
X148766627Y-92457037D01*
X148879853Y-92491384D01*
X148936467Y-92508557D01*
X149075087Y-92582652D01*
X149092991Y-92592222D01*
X149128729Y-92621552D01*
X149230186Y-92704814D01*
X149313448Y-92806271D01*
X149342778Y-92842009D01*
X149342779Y-92842011D01*
X149426443Y-92998533D01*
X149426443Y-92998534D01*
X149477963Y-93168373D01*
X149495359Y-93345000D01*
X149477963Y-93521627D01*
X149470435Y-93546443D01*
X149426443Y-93691467D01*
X149352348Y-93830087D01*
X149342778Y-93847991D01*
X149313448Y-93883729D01*
X149230186Y-93985186D01*
X149128729Y-94068448D01*
X149092991Y-94097778D01*
X149092989Y-94097779D01*
X148936467Y-94181443D01*
X148879853Y-94198616D01*
X148766627Y-94232963D01*
X148700443Y-94239481D01*
X148634260Y-94246000D01*
X148545740Y-94246000D01*
X148479557Y-94239481D01*
X148413373Y-94232963D01*
X148300147Y-94198616D01*
X148243533Y-94181443D01*
X148087011Y-94097779D01*
X148087009Y-94097778D01*
X148051271Y-94068448D01*
X147949814Y-93985186D01*
X147866552Y-93883729D01*
X147837222Y-93847991D01*
X147827652Y-93830087D01*
X147753557Y-93691467D01*
X147709565Y-93546443D01*
X147702037Y-93521627D01*
X147684641Y-93345000D01*
X147702037Y-93168373D01*
X147753557Y-92998534D01*
X147753557Y-92998533D01*
X147837221Y-92842011D01*
X147837222Y-92842009D01*
X147866552Y-92806271D01*
X147949814Y-92704814D01*
X148051271Y-92621552D01*
X148087009Y-92592222D01*
X148104913Y-92582652D01*
X148243533Y-92508557D01*
X148300147Y-92491384D01*
X148413373Y-92457037D01*
X148479557Y-92450519D01*
X148545740Y-92444000D01*
X148634260Y-92444000D01*
X148700443Y-92450519D01*
X148700443Y-92450519D01*
G37*
G36*
X86470442Y-91815518D02*
X86536627Y-91822037D01*
X86649853Y-91856384D01*
X86706467Y-91873557D01*
X86845087Y-91947652D01*
X86862991Y-91957222D01*
X86898729Y-91986552D01*
X87000186Y-92069814D01*
X87083448Y-92171271D01*
X87112778Y-92207009D01*
X87112779Y-92207011D01*
X87196443Y-92363533D01*
X87196443Y-92363534D01*
X87247963Y-92533373D01*
X87265359Y-92710000D01*
X87247963Y-92886627D01*
X87214017Y-92998533D01*
X87196443Y-93056467D01*
X87136627Y-93168373D01*
X87112778Y-93212991D01*
X87083448Y-93248729D01*
X87000186Y-93350186D01*
X86898729Y-93433448D01*
X86862991Y-93462778D01*
X86862989Y-93462779D01*
X86706467Y-93546443D01*
X86649853Y-93563616D01*
X86536627Y-93597963D01*
X86470443Y-93604481D01*
X86404260Y-93611000D01*
X86315740Y-93611000D01*
X86249557Y-93604481D01*
X86183373Y-93597963D01*
X86070147Y-93563616D01*
X86013533Y-93546443D01*
X85857011Y-93462779D01*
X85857009Y-93462778D01*
X85821271Y-93433448D01*
X85719814Y-93350186D01*
X85636552Y-93248729D01*
X85607222Y-93212991D01*
X85583373Y-93168373D01*
X85523557Y-93056467D01*
X85505983Y-92998533D01*
X85472037Y-92886627D01*
X85454641Y-92710000D01*
X85472037Y-92533373D01*
X85523557Y-92363534D01*
X85523557Y-92363533D01*
X85607221Y-92207011D01*
X85607222Y-92207009D01*
X85636552Y-92171271D01*
X85719814Y-92069814D01*
X85821271Y-91986552D01*
X85857009Y-91957222D01*
X85874913Y-91947652D01*
X86013533Y-91873557D01*
X86070147Y-91856384D01*
X86183373Y-91822037D01*
X86249558Y-91815518D01*
X86315740Y-91809000D01*
X86404260Y-91809000D01*
X86470442Y-91815518D01*
X86470442Y-91815518D01*
G37*
G36*
X111870442Y-91815518D02*
X111936627Y-91822037D01*
X112049853Y-91856384D01*
X112106467Y-91873557D01*
X112245087Y-91947652D01*
X112262991Y-91957222D01*
X112298729Y-91986552D01*
X112400186Y-92069814D01*
X112483448Y-92171271D01*
X112512778Y-92207009D01*
X112512779Y-92207011D01*
X112596443Y-92363533D01*
X112596443Y-92363534D01*
X112647963Y-92533373D01*
X112665359Y-92710000D01*
X112647963Y-92886627D01*
X112614017Y-92998533D01*
X112596443Y-93056467D01*
X112536627Y-93168373D01*
X112512778Y-93212991D01*
X112483448Y-93248729D01*
X112400186Y-93350186D01*
X112298729Y-93433448D01*
X112262991Y-93462778D01*
X112262989Y-93462779D01*
X112106467Y-93546443D01*
X112049853Y-93563616D01*
X111936627Y-93597963D01*
X111870443Y-93604481D01*
X111804260Y-93611000D01*
X111715740Y-93611000D01*
X111649557Y-93604481D01*
X111583373Y-93597963D01*
X111470147Y-93563616D01*
X111413533Y-93546443D01*
X111257011Y-93462779D01*
X111257009Y-93462778D01*
X111221271Y-93433448D01*
X111119814Y-93350186D01*
X111036552Y-93248729D01*
X111007222Y-93212991D01*
X110983373Y-93168373D01*
X110923557Y-93056467D01*
X110905983Y-92998533D01*
X110872037Y-92886627D01*
X110854641Y-92710000D01*
X110872037Y-92533373D01*
X110923557Y-92363534D01*
X110923557Y-92363533D01*
X111007221Y-92207011D01*
X111007222Y-92207009D01*
X111036552Y-92171271D01*
X111119814Y-92069814D01*
X111221271Y-91986552D01*
X111257009Y-91957222D01*
X111274913Y-91947652D01*
X111413533Y-91873557D01*
X111470147Y-91856384D01*
X111583373Y-91822037D01*
X111649558Y-91815518D01*
X111715740Y-91809000D01*
X111804260Y-91809000D01*
X111870442Y-91815518D01*
X111870442Y-91815518D01*
G37*
G36*
X111870443Y-89275519D02*
X111936627Y-89282037D01*
X112049853Y-89316384D01*
X112106467Y-89333557D01*
X112245087Y-89407652D01*
X112262991Y-89417222D01*
X112298729Y-89446552D01*
X112400186Y-89529814D01*
X112483448Y-89631271D01*
X112512778Y-89667009D01*
X112512779Y-89667011D01*
X112596443Y-89823533D01*
X112596443Y-89823534D01*
X112647963Y-89993373D01*
X112665359Y-90170000D01*
X112647963Y-90346627D01*
X112613616Y-90459853D01*
X112596443Y-90516467D01*
X112522348Y-90655087D01*
X112512778Y-90672991D01*
X112483448Y-90708729D01*
X112400186Y-90810186D01*
X112298729Y-90893448D01*
X112262991Y-90922778D01*
X112262989Y-90922779D01*
X112106467Y-91006443D01*
X112049853Y-91023616D01*
X111936627Y-91057963D01*
X111870442Y-91064482D01*
X111804260Y-91071000D01*
X111715740Y-91071000D01*
X111649558Y-91064482D01*
X111583373Y-91057963D01*
X111470147Y-91023616D01*
X111413533Y-91006443D01*
X111257011Y-90922779D01*
X111257009Y-90922778D01*
X111221271Y-90893448D01*
X111119814Y-90810186D01*
X111036552Y-90708729D01*
X111007222Y-90672991D01*
X110997652Y-90655087D01*
X110923557Y-90516467D01*
X110906384Y-90459853D01*
X110872037Y-90346627D01*
X110854641Y-90170000D01*
X110872037Y-89993373D01*
X110923557Y-89823534D01*
X110923557Y-89823533D01*
X111007221Y-89667011D01*
X111007222Y-89667009D01*
X111036552Y-89631271D01*
X111119814Y-89529814D01*
X111221271Y-89446552D01*
X111257009Y-89417222D01*
X111274913Y-89407652D01*
X111413533Y-89333557D01*
X111470147Y-89316384D01*
X111583373Y-89282037D01*
X111649557Y-89275519D01*
X111715740Y-89269000D01*
X111804260Y-89269000D01*
X111870443Y-89275519D01*
X111870443Y-89275519D01*
G37*
G36*
X86470443Y-89275519D02*
X86536627Y-89282037D01*
X86649853Y-89316384D01*
X86706467Y-89333557D01*
X86845087Y-89407652D01*
X86862991Y-89417222D01*
X86898729Y-89446552D01*
X87000186Y-89529814D01*
X87083448Y-89631271D01*
X87112778Y-89667009D01*
X87112779Y-89667011D01*
X87196443Y-89823533D01*
X87196443Y-89823534D01*
X87247963Y-89993373D01*
X87265359Y-90170000D01*
X87247963Y-90346627D01*
X87213616Y-90459853D01*
X87196443Y-90516467D01*
X87122348Y-90655087D01*
X87112778Y-90672991D01*
X87083448Y-90708729D01*
X87000186Y-90810186D01*
X86898729Y-90893448D01*
X86862991Y-90922778D01*
X86862989Y-90922779D01*
X86706467Y-91006443D01*
X86649853Y-91023616D01*
X86536627Y-91057963D01*
X86470442Y-91064482D01*
X86404260Y-91071000D01*
X86315740Y-91071000D01*
X86249558Y-91064482D01*
X86183373Y-91057963D01*
X86070147Y-91023616D01*
X86013533Y-91006443D01*
X85857011Y-90922779D01*
X85857009Y-90922778D01*
X85821271Y-90893448D01*
X85719814Y-90810186D01*
X85636552Y-90708729D01*
X85607222Y-90672991D01*
X85597652Y-90655087D01*
X85523557Y-90516467D01*
X85506384Y-90459853D01*
X85472037Y-90346627D01*
X85454641Y-90170000D01*
X85472037Y-89993373D01*
X85523557Y-89823534D01*
X85523557Y-89823533D01*
X85607221Y-89667011D01*
X85607222Y-89667009D01*
X85636552Y-89631271D01*
X85719814Y-89529814D01*
X85821271Y-89446552D01*
X85857009Y-89417222D01*
X85874913Y-89407652D01*
X86013533Y-89333557D01*
X86070147Y-89316384D01*
X86183373Y-89282037D01*
X86249557Y-89275519D01*
X86315740Y-89269000D01*
X86404260Y-89269000D01*
X86470443Y-89275519D01*
X86470443Y-89275519D01*
G37*
G36*
X112661000Y-88531000D02*
X110859000Y-88531000D01*
X110859000Y-86729000D01*
X112661000Y-86729000D01*
X112661000Y-88531000D01*
X112661000Y-88531000D01*
G37*
G36*
X87261000Y-88531000D02*
X85459000Y-88531000D01*
X85459000Y-86729000D01*
X87261000Y-86729000D01*
X87261000Y-88531000D01*
X87261000Y-88531000D01*
G37*
M02*
