G04 #@! TF.GenerationSoftware,KiCad,Pcbnew,5.0.2-bee76a0~70~ubuntu18.10.1*
G04 #@! TF.CreationDate,2019-04-28T23:28:47+02:00*
G04 #@! TF.ProjectId,carte_RouleMaPoule,63617274-655f-4526-9f75-6c654d61506f,A*
G04 #@! TF.SameCoordinates,Original*
G04 #@! TF.FileFunction,Legend,Top*
G04 #@! TF.FilePolarity,Positive*
%FSLAX46Y46*%
G04 Gerber Fmt 4.6, Leading zero omitted, Abs format (unit mm)*
G04 Created by KiCad (PCBNEW 5.0.2-bee76a0~70~ubuntu18.10.1) date dim. 28 avril 2019 23:28:47 CEST*
%MOMM*%
%LPD*%
G01*
G04 APERTURE LIST*
%ADD10C,0.300000*%
%ADD11C,0.150000*%
%ADD12C,0.120000*%
G04 APERTURE END LIST*
D10*
X91631428Y-84982857D02*
X91845714Y-85054285D01*
X91917142Y-85125714D01*
X91988571Y-85268571D01*
X91988571Y-85482857D01*
X91917142Y-85625714D01*
X91845714Y-85697142D01*
X91702857Y-85768571D01*
X91131428Y-85768571D01*
X91131428Y-84268571D01*
X91631428Y-84268571D01*
X91774285Y-84340000D01*
X91845714Y-84411428D01*
X91917142Y-84554285D01*
X91917142Y-84697142D01*
X91845714Y-84840000D01*
X91774285Y-84911428D01*
X91631428Y-84982857D01*
X91131428Y-84982857D01*
X92631428Y-85625714D02*
X92702857Y-85697142D01*
X92631428Y-85768571D01*
X92560000Y-85697142D01*
X92631428Y-85625714D01*
X92631428Y-85768571D01*
X94988571Y-84982857D02*
X95202857Y-85054285D01*
X95274285Y-85125714D01*
X95345714Y-85268571D01*
X95345714Y-85482857D01*
X95274285Y-85625714D01*
X95202857Y-85697142D01*
X95060000Y-85768571D01*
X94488571Y-85768571D01*
X94488571Y-84268571D01*
X94988571Y-84268571D01*
X95131428Y-84340000D01*
X95202857Y-84411428D01*
X95274285Y-84554285D01*
X95274285Y-84697142D01*
X95202857Y-84840000D01*
X95131428Y-84911428D01*
X94988571Y-84982857D01*
X94488571Y-84982857D01*
X96202857Y-85768571D02*
X96060000Y-85697142D01*
X95988571Y-85625714D01*
X95917142Y-85482857D01*
X95917142Y-85054285D01*
X95988571Y-84911428D01*
X96060000Y-84840000D01*
X96202857Y-84768571D01*
X96417142Y-84768571D01*
X96560000Y-84840000D01*
X96631428Y-84911428D01*
X96702857Y-85054285D01*
X96702857Y-85482857D01*
X96631428Y-85625714D01*
X96560000Y-85697142D01*
X96417142Y-85768571D01*
X96202857Y-85768571D01*
X97988571Y-84768571D02*
X97988571Y-85768571D01*
X97345714Y-84768571D02*
X97345714Y-85554285D01*
X97417142Y-85697142D01*
X97560000Y-85768571D01*
X97774285Y-85768571D01*
X97917142Y-85697142D01*
X97988571Y-85625714D01*
X99345714Y-85697142D02*
X99202857Y-85768571D01*
X98917142Y-85768571D01*
X98774285Y-85697142D01*
X98702857Y-85625714D01*
X98631428Y-85482857D01*
X98631428Y-85054285D01*
X98702857Y-84911428D01*
X98774285Y-84840000D01*
X98917142Y-84768571D01*
X99202857Y-84768571D01*
X99345714Y-84840000D01*
X99988571Y-85768571D02*
X99988571Y-84268571D01*
X100631428Y-85768571D02*
X100631428Y-84982857D01*
X100560000Y-84840000D01*
X100417142Y-84768571D01*
X100202857Y-84768571D01*
X100060000Y-84840000D01*
X99988571Y-84911428D01*
X101988571Y-85768571D02*
X101988571Y-84982857D01*
X101917142Y-84840000D01*
X101774285Y-84768571D01*
X101488571Y-84768571D01*
X101345714Y-84840000D01*
X101988571Y-85697142D02*
X101845714Y-85768571D01*
X101488571Y-85768571D01*
X101345714Y-85697142D01*
X101274285Y-85554285D01*
X101274285Y-85411428D01*
X101345714Y-85268571D01*
X101488571Y-85197142D01*
X101845714Y-85197142D01*
X101988571Y-85125714D01*
X102702857Y-85768571D02*
X102702857Y-84768571D01*
X102702857Y-85054285D02*
X102774285Y-84911428D01*
X102845714Y-84840000D01*
X102988571Y-84768571D01*
X103131428Y-84768571D01*
X104274285Y-85768571D02*
X104274285Y-84268571D01*
X104274285Y-85697142D02*
X104131428Y-85768571D01*
X103845714Y-85768571D01*
X103702857Y-85697142D01*
X103631428Y-85625714D01*
X103560000Y-85482857D01*
X103560000Y-85054285D01*
X103631428Y-84911428D01*
X103702857Y-84840000D01*
X103845714Y-84768571D01*
X104131428Y-84768571D01*
X104274285Y-84840000D01*
X105202857Y-85768571D02*
X105060000Y-85697142D01*
X104988571Y-85625714D01*
X104917142Y-85482857D01*
X104917142Y-85054285D01*
X104988571Y-84911428D01*
X105060000Y-84840000D01*
X105202857Y-84768571D01*
X105417142Y-84768571D01*
X105560000Y-84840000D01*
X105631428Y-84911428D01*
X105702857Y-85054285D01*
X105702857Y-85482857D01*
X105631428Y-85625714D01*
X105560000Y-85697142D01*
X105417142Y-85768571D01*
X105202857Y-85768571D01*
X106345714Y-84768571D02*
X106345714Y-85768571D01*
X106345714Y-84911428D02*
X106417142Y-84840000D01*
X106560000Y-84768571D01*
X106774285Y-84768571D01*
X106917142Y-84840000D01*
X106988571Y-84982857D01*
X106988571Y-85768571D01*
X117960714Y-135933571D02*
X117960714Y-134433571D01*
X118532142Y-134433571D01*
X118675000Y-134505000D01*
X118746428Y-134576428D01*
X118817857Y-134719285D01*
X118817857Y-134933571D01*
X118746428Y-135076428D01*
X118675000Y-135147857D01*
X118532142Y-135219285D01*
X117960714Y-135219285D01*
X119746428Y-134433571D02*
X120032142Y-134433571D01*
X120175000Y-134505000D01*
X120317857Y-134647857D01*
X120389285Y-134933571D01*
X120389285Y-135433571D01*
X120317857Y-135719285D01*
X120175000Y-135862142D01*
X120032142Y-135933571D01*
X119746428Y-135933571D01*
X119603571Y-135862142D01*
X119460714Y-135719285D01*
X119389285Y-135433571D01*
X119389285Y-134933571D01*
X119460714Y-134647857D01*
X119603571Y-134505000D01*
X119746428Y-134433571D01*
X121746428Y-135933571D02*
X121032142Y-135933571D01*
X121032142Y-134433571D01*
X122532142Y-135219285D02*
X122532142Y-135933571D01*
X122032142Y-134433571D02*
X122532142Y-135219285D01*
X123032142Y-134433571D01*
X123317857Y-134433571D02*
X124175000Y-134433571D01*
X123746428Y-135933571D02*
X123746428Y-134433571D01*
X124675000Y-135147857D02*
X125175000Y-135147857D01*
X125389285Y-135933571D02*
X124675000Y-135933571D01*
X124675000Y-134433571D01*
X125389285Y-134433571D01*
X126889285Y-135790714D02*
X126817857Y-135862142D01*
X126603571Y-135933571D01*
X126460714Y-135933571D01*
X126246428Y-135862142D01*
X126103571Y-135719285D01*
X126032142Y-135576428D01*
X125960714Y-135290714D01*
X125960714Y-135076428D01*
X126032142Y-134790714D01*
X126103571Y-134647857D01*
X126246428Y-134505000D01*
X126460714Y-134433571D01*
X126603571Y-134433571D01*
X126817857Y-134505000D01*
X126889285Y-134576428D01*
X127532142Y-135933571D02*
X127532142Y-134433571D01*
X127532142Y-135147857D02*
X128389285Y-135147857D01*
X128389285Y-135933571D02*
X128389285Y-134433571D01*
X130032142Y-134433571D02*
X130889285Y-134433571D01*
X130460714Y-135933571D02*
X130460714Y-134433571D01*
X131603571Y-135933571D02*
X131460714Y-135862142D01*
X131389285Y-135790714D01*
X131317857Y-135647857D01*
X131317857Y-135219285D01*
X131389285Y-135076428D01*
X131460714Y-135005000D01*
X131603571Y-134933571D01*
X131817857Y-134933571D01*
X131960714Y-135005000D01*
X132032142Y-135076428D01*
X132103571Y-135219285D01*
X132103571Y-135647857D01*
X132032142Y-135790714D01*
X131960714Y-135862142D01*
X131817857Y-135933571D01*
X131603571Y-135933571D01*
X133389285Y-134933571D02*
X133389285Y-135933571D01*
X132746428Y-134933571D02*
X132746428Y-135719285D01*
X132817857Y-135862142D01*
X132960714Y-135933571D01*
X133175000Y-135933571D01*
X133317857Y-135862142D01*
X133389285Y-135790714D01*
X134103571Y-135933571D02*
X134103571Y-134933571D01*
X134103571Y-135219285D02*
X134175000Y-135076428D01*
X134246428Y-135005000D01*
X134389285Y-134933571D01*
X134532142Y-134933571D01*
X134960714Y-135862142D02*
X135103571Y-135933571D01*
X135389285Y-135933571D01*
X135532142Y-135862142D01*
X135603571Y-135719285D01*
X135603571Y-135647857D01*
X135532142Y-135505000D01*
X135389285Y-135433571D01*
X135175000Y-135433571D01*
X135032142Y-135362142D01*
X134960714Y-135219285D01*
X134960714Y-135147857D01*
X135032142Y-135005000D01*
X135175000Y-134933571D01*
X135389285Y-134933571D01*
X135532142Y-135005000D01*
X137317857Y-134576428D02*
X137389285Y-134505000D01*
X137532142Y-134433571D01*
X137889285Y-134433571D01*
X138032142Y-134505000D01*
X138103571Y-134576428D01*
X138175000Y-134719285D01*
X138175000Y-134862142D01*
X138103571Y-135076428D01*
X137246428Y-135933571D01*
X138175000Y-135933571D01*
X139103571Y-134433571D02*
X139246428Y-134433571D01*
X139389285Y-134505000D01*
X139460714Y-134576428D01*
X139532142Y-134719285D01*
X139603571Y-135005000D01*
X139603571Y-135362142D01*
X139532142Y-135647857D01*
X139460714Y-135790714D01*
X139389285Y-135862142D01*
X139246428Y-135933571D01*
X139103571Y-135933571D01*
X138960714Y-135862142D01*
X138889285Y-135790714D01*
X138817857Y-135647857D01*
X138746428Y-135362142D01*
X138746428Y-135005000D01*
X138817857Y-134719285D01*
X138889285Y-134576428D01*
X138960714Y-134505000D01*
X139103571Y-134433571D01*
X141032142Y-135933571D02*
X140175000Y-135933571D01*
X140603571Y-135933571D02*
X140603571Y-134433571D01*
X140460714Y-134647857D01*
X140317857Y-134790714D01*
X140175000Y-134862142D01*
X141746428Y-135933571D02*
X142032142Y-135933571D01*
X142175000Y-135862142D01*
X142246428Y-135790714D01*
X142389285Y-135576428D01*
X142460714Y-135290714D01*
X142460714Y-134719285D01*
X142389285Y-134576428D01*
X142317857Y-134505000D01*
X142175000Y-134433571D01*
X141889285Y-134433571D01*
X141746428Y-134505000D01*
X141675000Y-134576428D01*
X141603571Y-134719285D01*
X141603571Y-135076428D01*
X141675000Y-135219285D01*
X141746428Y-135290714D01*
X141889285Y-135362142D01*
X142175000Y-135362142D01*
X142317857Y-135290714D01*
X142389285Y-135219285D01*
X142460714Y-135076428D01*
X69445714Y-127448571D02*
X70302857Y-127448571D01*
X69874285Y-128948571D02*
X69874285Y-127448571D01*
X71088571Y-127448571D02*
X71374285Y-127448571D01*
X71517142Y-127520000D01*
X71660000Y-127662857D01*
X71731428Y-127948571D01*
X71731428Y-128448571D01*
X71660000Y-128734285D01*
X71517142Y-128877142D01*
X71374285Y-128948571D01*
X71088571Y-128948571D01*
X70945714Y-128877142D01*
X70802857Y-128734285D01*
X70731428Y-128448571D01*
X70731428Y-127948571D01*
X70802857Y-127662857D01*
X70945714Y-127520000D01*
X71088571Y-127448571D01*
X72374285Y-127448571D02*
X72374285Y-128662857D01*
X72445714Y-128805714D01*
X72517142Y-128877142D01*
X72660000Y-128948571D01*
X72945714Y-128948571D01*
X73088571Y-128877142D01*
X73160000Y-128805714D01*
X73231428Y-128662857D01*
X73231428Y-127448571D01*
X74802857Y-128805714D02*
X74731428Y-128877142D01*
X74517142Y-128948571D01*
X74374285Y-128948571D01*
X74160000Y-128877142D01*
X74017142Y-128734285D01*
X73945714Y-128591428D01*
X73874285Y-128305714D01*
X73874285Y-128091428D01*
X73945714Y-127805714D01*
X74017142Y-127662857D01*
X74160000Y-127520000D01*
X74374285Y-127448571D01*
X74517142Y-127448571D01*
X74731428Y-127520000D01*
X74802857Y-127591428D01*
X75445714Y-128948571D02*
X75445714Y-127448571D01*
X75445714Y-128162857D02*
X76302857Y-128162857D01*
X76302857Y-128948571D02*
X76302857Y-127448571D01*
X77017142Y-128162857D02*
X77517142Y-128162857D01*
X77731428Y-128948571D02*
X77017142Y-128948571D01*
X77017142Y-127448571D01*
X77731428Y-127448571D01*
X125928571Y-84975000D02*
X125785714Y-84903571D01*
X125571428Y-84903571D01*
X125357142Y-84975000D01*
X125214285Y-85117857D01*
X125142857Y-85260714D01*
X125071428Y-85546428D01*
X125071428Y-85760714D01*
X125142857Y-86046428D01*
X125214285Y-86189285D01*
X125357142Y-86332142D01*
X125571428Y-86403571D01*
X125714285Y-86403571D01*
X125928571Y-86332142D01*
X126000000Y-86260714D01*
X126000000Y-85760714D01*
X125714285Y-85760714D01*
X126642857Y-86403571D02*
X126642857Y-84903571D01*
X127214285Y-84903571D01*
X127357142Y-84975000D01*
X127428571Y-85046428D01*
X127500000Y-85189285D01*
X127500000Y-85403571D01*
X127428571Y-85546428D01*
X127357142Y-85617857D01*
X127214285Y-85689285D01*
X126642857Y-85689285D01*
X128071428Y-86332142D02*
X128285714Y-86403571D01*
X128642857Y-86403571D01*
X128785714Y-86332142D01*
X128857142Y-86260714D01*
X128928571Y-86117857D01*
X128928571Y-85975000D01*
X128857142Y-85832142D01*
X128785714Y-85760714D01*
X128642857Y-85689285D01*
X128357142Y-85617857D01*
X128214285Y-85546428D01*
X128142857Y-85475000D01*
X128071428Y-85332142D01*
X128071428Y-85189285D01*
X128142857Y-85046428D01*
X128214285Y-84975000D01*
X128357142Y-84903571D01*
X128714285Y-84903571D01*
X128928571Y-84975000D01*
X95845714Y-126892857D02*
X96345714Y-126892857D01*
X96560000Y-127678571D02*
X95845714Y-127678571D01*
X95845714Y-126178571D01*
X96560000Y-126178571D01*
X97131428Y-127607142D02*
X97345714Y-127678571D01*
X97702857Y-127678571D01*
X97845714Y-127607142D01*
X97917142Y-127535714D01*
X97988571Y-127392857D01*
X97988571Y-127250000D01*
X97917142Y-127107142D01*
X97845714Y-127035714D01*
X97702857Y-126964285D01*
X97417142Y-126892857D01*
X97274285Y-126821428D01*
X97202857Y-126750000D01*
X97131428Y-126607142D01*
X97131428Y-126464285D01*
X97202857Y-126321428D01*
X97274285Y-126250000D01*
X97417142Y-126178571D01*
X97774285Y-126178571D01*
X97988571Y-126250000D01*
X98631428Y-127678571D02*
X98631428Y-126178571D01*
X99202857Y-126178571D01*
X99345714Y-126250000D01*
X99417142Y-126321428D01*
X99488571Y-126464285D01*
X99488571Y-126678571D01*
X99417142Y-126821428D01*
X99345714Y-126892857D01*
X99202857Y-126964285D01*
X98631428Y-126964285D01*
X99988571Y-126178571D02*
X100917142Y-126178571D01*
X100417142Y-126750000D01*
X100631428Y-126750000D01*
X100774285Y-126821428D01*
X100845714Y-126892857D01*
X100917142Y-127035714D01*
X100917142Y-127392857D01*
X100845714Y-127535714D01*
X100774285Y-127607142D01*
X100631428Y-127678571D01*
X100202857Y-127678571D01*
X100060000Y-127607142D01*
X99988571Y-127535714D01*
X101488571Y-126321428D02*
X101560000Y-126250000D01*
X101702857Y-126178571D01*
X102060000Y-126178571D01*
X102202857Y-126250000D01*
X102274285Y-126321428D01*
X102345714Y-126464285D01*
X102345714Y-126607142D01*
X102274285Y-126821428D01*
X101417142Y-127678571D01*
X102345714Y-127678571D01*
X144177142Y-87880000D02*
X144891428Y-87880000D01*
X144034285Y-88308571D02*
X144534285Y-86808571D01*
X145034285Y-88308571D01*
X146391428Y-88165714D02*
X146320000Y-88237142D01*
X146105714Y-88308571D01*
X145962857Y-88308571D01*
X145748571Y-88237142D01*
X145605714Y-88094285D01*
X145534285Y-87951428D01*
X145462857Y-87665714D01*
X145462857Y-87451428D01*
X145534285Y-87165714D01*
X145605714Y-87022857D01*
X145748571Y-86880000D01*
X145962857Y-86808571D01*
X146105714Y-86808571D01*
X146320000Y-86880000D01*
X146391428Y-86951428D01*
X147891428Y-88165714D02*
X147820000Y-88237142D01*
X147605714Y-88308571D01*
X147462857Y-88308571D01*
X147248571Y-88237142D01*
X147105714Y-88094285D01*
X147034285Y-87951428D01*
X146962857Y-87665714D01*
X146962857Y-87451428D01*
X147034285Y-87165714D01*
X147105714Y-87022857D01*
X147248571Y-86880000D01*
X147462857Y-86808571D01*
X147605714Y-86808571D01*
X147820000Y-86880000D01*
X147891428Y-86951428D01*
X148534285Y-87522857D02*
X149034285Y-87522857D01*
X149248571Y-88308571D02*
X148534285Y-88308571D01*
X148534285Y-86808571D01*
X149248571Y-86808571D01*
X150605714Y-88308571D02*
X149891428Y-88308571D01*
X149891428Y-86808571D01*
X145641428Y-133877857D02*
X145855714Y-133949285D01*
X145927142Y-134020714D01*
X145998571Y-134163571D01*
X145998571Y-134377857D01*
X145927142Y-134520714D01*
X145855714Y-134592142D01*
X145712857Y-134663571D01*
X145141428Y-134663571D01*
X145141428Y-133163571D01*
X145641428Y-133163571D01*
X145784285Y-133235000D01*
X145855714Y-133306428D01*
X145927142Y-133449285D01*
X145927142Y-133592142D01*
X145855714Y-133735000D01*
X145784285Y-133806428D01*
X145641428Y-133877857D01*
X145141428Y-133877857D01*
X146570000Y-134235000D02*
X147284285Y-134235000D01*
X146427142Y-134663571D02*
X146927142Y-133163571D01*
X147427142Y-134663571D01*
X147712857Y-133163571D02*
X148570000Y-133163571D01*
X148141428Y-134663571D02*
X148141428Y-133163571D01*
X148855714Y-133163571D02*
X149712857Y-133163571D01*
X149284285Y-134663571D02*
X149284285Y-133163571D01*
D11*
G04 #@! TO.C,U2*
X118745000Y-86995000D02*
X135255000Y-86995000D01*
X135255000Y-86995000D02*
X135255000Y-117475000D01*
X135255000Y-117475000D02*
X118745000Y-117475000D01*
X118745000Y-117475000D02*
X118745000Y-86995000D01*
D12*
G04 #@! TO.C,C1*
X141330000Y-127667936D02*
X141330000Y-128872064D01*
X143150000Y-127667936D02*
X143150000Y-128872064D01*
G04 #@! TO.C,C2*
X74962936Y-97515000D02*
X76167064Y-97515000D01*
X74962936Y-99335000D02*
X76167064Y-99335000D01*
G04 #@! TO.C,C3*
X78975000Y-92945000D02*
X78975000Y-90595000D01*
X78975000Y-86125000D02*
X78975000Y-88475000D01*
X73219437Y-86125000D02*
X78975000Y-86125000D01*
X73219437Y-92945000D02*
X78975000Y-92945000D01*
X72155000Y-91880563D02*
X72155000Y-90595000D01*
X72155000Y-87189437D02*
X72155000Y-88475000D01*
X72155000Y-87189437D02*
X73219437Y-86125000D01*
X72155000Y-91880563D02*
X73219437Y-92945000D01*
X71127500Y-87687500D02*
X71915000Y-87687500D01*
X71521250Y-87293750D02*
X71521250Y-88081250D01*
G04 #@! TO.C,C4*
X123169000Y-124932064D02*
X123169000Y-123727936D01*
X124989000Y-124932064D02*
X124989000Y-123727936D01*
G04 #@! TO.C,C5*
X118266936Y-127360000D02*
X119471064Y-127360000D01*
X118266936Y-129180000D02*
X119471064Y-129180000D01*
G04 #@! TO.C,C6*
X117369000Y-124932064D02*
X117369000Y-123727936D01*
X115549000Y-124932064D02*
X115549000Y-123727936D01*
G04 #@! TO.C,D1*
X74321500Y-102555000D02*
X70436500Y-102555000D01*
X70436500Y-102555000D02*
X70436500Y-105725000D01*
X70436500Y-105725000D02*
X74321500Y-105725000D01*
G04 #@! TO.C,D2*
X70436500Y-110170000D02*
X74321500Y-110170000D01*
X70436500Y-107000000D02*
X70436500Y-110170000D01*
X74321500Y-107000000D02*
X70436500Y-107000000D01*
G04 #@! TO.C,D3*
X74321500Y-111445000D02*
X70436500Y-111445000D01*
X70436500Y-111445000D02*
X70436500Y-114615000D01*
X70436500Y-114615000D02*
X74321500Y-114615000D01*
G04 #@! TO.C,D4*
X70436500Y-119060000D02*
X74321500Y-119060000D01*
X70436500Y-115890000D02*
X70436500Y-119060000D01*
X74321500Y-115890000D02*
X70436500Y-115890000D01*
G04 #@! TO.C,D5*
X74321500Y-120335000D02*
X70436500Y-120335000D01*
X70436500Y-120335000D02*
X70436500Y-123505000D01*
X70436500Y-123505000D02*
X74321500Y-123505000D01*
G04 #@! TO.C,J1*
X145510000Y-131600000D02*
X150230000Y-131600000D01*
X150230000Y-131600000D02*
X150230000Y-125480000D01*
X150230000Y-125480000D02*
X145510000Y-125480000D01*
X145510000Y-125480000D02*
X145510000Y-131600000D01*
X145510000Y-129840000D02*
X145310000Y-129840000D01*
X145310000Y-129840000D02*
X145310000Y-130140000D01*
X145310000Y-130140000D02*
X145510000Y-130140000D01*
X145410000Y-129840000D02*
X145410000Y-130140000D01*
X145510000Y-129040000D02*
X146120000Y-129040000D01*
X146120000Y-129040000D02*
X146120000Y-130990000D01*
X146120000Y-130990000D02*
X149620000Y-130990000D01*
X149620000Y-130990000D02*
X149620000Y-126090000D01*
X149620000Y-126090000D02*
X146120000Y-126090000D01*
X146120000Y-126090000D02*
X146120000Y-128040000D01*
X146120000Y-128040000D02*
X145510000Y-128040000D01*
X146820000Y-131600000D02*
X146820000Y-130990000D01*
X148120000Y-131600000D02*
X148120000Y-130990000D01*
X146820000Y-125480000D02*
X146820000Y-126090000D01*
X148120000Y-125480000D02*
X148120000Y-126090000D01*
X149620000Y-128640000D02*
X149120000Y-128640000D01*
X149120000Y-128640000D02*
X149120000Y-128440000D01*
X149120000Y-128440000D02*
X149620000Y-128440000D01*
X149620000Y-128540000D02*
X149120000Y-128540000D01*
X145210000Y-130650000D02*
X145210000Y-131900000D01*
X145210000Y-131900000D02*
X146460000Y-131900000D01*
G04 #@! TO.C,L1*
X130011000Y-129321936D02*
X130011000Y-130526064D01*
X127291000Y-129321936D02*
X127291000Y-130526064D01*
G04 #@! TO.C,R1*
X128799000Y-123727936D02*
X128799000Y-124932064D01*
X126979000Y-123727936D02*
X126979000Y-124932064D01*
G04 #@! TO.C,R2*
X79472064Y-105050000D02*
X78267936Y-105050000D01*
X79472064Y-103230000D02*
X78267936Y-103230000D01*
G04 #@! TO.C,R3*
X79472064Y-107675000D02*
X78267936Y-107675000D01*
X79472064Y-109495000D02*
X78267936Y-109495000D01*
G04 #@! TO.C,R4*
X79472064Y-113940000D02*
X78267936Y-113940000D01*
X79472064Y-112120000D02*
X78267936Y-112120000D01*
G04 #@! TO.C,R5*
X79472064Y-116565000D02*
X78267936Y-116565000D01*
X79472064Y-118385000D02*
X78267936Y-118385000D01*
G04 #@! TO.C,R6*
X79472064Y-122830000D02*
X78267936Y-122830000D01*
X79472064Y-121010000D02*
X78267936Y-121010000D01*
G04 #@! TO.C,R7*
X123346936Y-127360000D02*
X124551064Y-127360000D01*
X123346936Y-129180000D02*
X124551064Y-129180000D01*
G04 #@! TO.C,R8*
X121179000Y-124932064D02*
X121179000Y-123727936D01*
X119359000Y-124932064D02*
X119359000Y-123727936D01*
G04 #@! TO.C,R9*
X120806936Y-131974000D02*
X122011064Y-131974000D01*
X120806936Y-130154000D02*
X122011064Y-130154000D01*
D11*
G04 #@! TO.C,U1*
X132495000Y-126645000D02*
X132560000Y-126645000D01*
X136745000Y-126645000D02*
X136680000Y-126645000D01*
X136745000Y-129895000D02*
X136680000Y-129895000D01*
X132495000Y-129895000D02*
X132495000Y-126645000D01*
X136745000Y-129895000D02*
X136745000Y-126645000D01*
X132495000Y-129895000D02*
X132495000Y-130820000D01*
D12*
G04 #@! TO.C,J2*
X79060000Y-127320000D02*
X79060000Y-129220000D01*
X79060000Y-129220000D02*
X80910000Y-129220000D01*
X80910000Y-129220000D02*
X80910000Y-127370000D01*
X80910000Y-127370000D02*
X80910000Y-127320000D01*
X80910000Y-127320000D02*
X79060000Y-127320000D01*
G04 #@! TO.C,J3*
X85030000Y-86300000D02*
X86360000Y-86300000D01*
X85030000Y-87630000D02*
X85030000Y-86300000D01*
X85030000Y-88900000D02*
X87690000Y-88900000D01*
X87690000Y-88900000D02*
X87690000Y-134680000D01*
X85030000Y-88900000D02*
X85030000Y-134680000D01*
X85030000Y-134680000D02*
X87690000Y-134680000D01*
G04 #@! TO.C,J4*
X110430000Y-134680000D02*
X113090000Y-134680000D01*
X110430000Y-88900000D02*
X110430000Y-134680000D01*
X113090000Y-88900000D02*
X113090000Y-134680000D01*
X110430000Y-88900000D02*
X113090000Y-88900000D01*
X110430000Y-87630000D02*
X110430000Y-86300000D01*
X110430000Y-86300000D02*
X111760000Y-86300000D01*
G04 #@! TO.C,C8*
X141572064Y-105685000D02*
X140367936Y-105685000D01*
X141572064Y-103865000D02*
X140367936Y-103865000D01*
G04 #@! TO.C,R10*
X139602936Y-89260000D02*
X140807064Y-89260000D01*
X139602936Y-91080000D02*
X140807064Y-91080000D01*
G04 #@! TO.C,R11*
X139607937Y-93880001D02*
X140812065Y-93880001D01*
X139607937Y-92060001D02*
X140812065Y-92060001D01*
G04 #@! TO.C,J5*
X144720000Y-122615000D02*
X149920000Y-122615000D01*
X144720000Y-109855000D02*
X144720000Y-122615000D01*
X149920000Y-107255000D02*
X149920000Y-122615000D01*
X144720000Y-109855000D02*
X147320000Y-109855000D01*
X147320000Y-109855000D02*
X147320000Y-107255000D01*
X147320000Y-107255000D02*
X149920000Y-107255000D01*
X144720000Y-108585000D02*
X144720000Y-107255000D01*
X144720000Y-107255000D02*
X146050000Y-107255000D01*
G04 #@! TO.C,J6*
X144720000Y-102295000D02*
X149920000Y-102295000D01*
X144720000Y-94615000D02*
X144720000Y-102295000D01*
X149920000Y-92015000D02*
X149920000Y-102295000D01*
X144720000Y-94615000D02*
X147320000Y-94615000D01*
X147320000Y-94615000D02*
X147320000Y-92015000D01*
X147320000Y-92015000D02*
X149920000Y-92015000D01*
X144720000Y-93345000D02*
X144720000Y-92015000D01*
X144720000Y-92015000D02*
X146050000Y-92015000D01*
G04 #@! TO.C,U2*
D11*
X125603095Y-104227380D02*
X125603095Y-105036904D01*
X125650714Y-105132142D01*
X125698333Y-105179761D01*
X125793571Y-105227380D01*
X125984047Y-105227380D01*
X126079285Y-105179761D01*
X126126904Y-105132142D01*
X126174523Y-105036904D01*
X126174523Y-104227380D01*
X126603095Y-104322619D02*
X126650714Y-104275000D01*
X126745952Y-104227380D01*
X126984047Y-104227380D01*
X127079285Y-104275000D01*
X127126904Y-104322619D01*
X127174523Y-104417857D01*
X127174523Y-104513095D01*
X127126904Y-104655952D01*
X126555476Y-105227380D01*
X127174523Y-105227380D01*
G04 #@! TO.C,C1*
X140692142Y-128436666D02*
X140739761Y-128484285D01*
X140787380Y-128627142D01*
X140787380Y-128722380D01*
X140739761Y-128865238D01*
X140644523Y-128960476D01*
X140549285Y-129008095D01*
X140358809Y-129055714D01*
X140215952Y-129055714D01*
X140025476Y-129008095D01*
X139930238Y-128960476D01*
X139835000Y-128865238D01*
X139787380Y-128722380D01*
X139787380Y-128627142D01*
X139835000Y-128484285D01*
X139882619Y-128436666D01*
X140787380Y-127484285D02*
X140787380Y-128055714D01*
X140787380Y-127770000D02*
X139787380Y-127770000D01*
X139930238Y-127865238D01*
X140025476Y-127960476D01*
X140073095Y-128055714D01*
G04 #@! TO.C,C2*
X75398333Y-96962142D02*
X75350714Y-97009761D01*
X75207857Y-97057380D01*
X75112619Y-97057380D01*
X74969761Y-97009761D01*
X74874523Y-96914523D01*
X74826904Y-96819285D01*
X74779285Y-96628809D01*
X74779285Y-96485952D01*
X74826904Y-96295476D01*
X74874523Y-96200238D01*
X74969761Y-96105000D01*
X75112619Y-96057380D01*
X75207857Y-96057380D01*
X75350714Y-96105000D01*
X75398333Y-96152619D01*
X75779285Y-96152619D02*
X75826904Y-96105000D01*
X75922142Y-96057380D01*
X76160238Y-96057380D01*
X76255476Y-96105000D01*
X76303095Y-96152619D01*
X76350714Y-96247857D01*
X76350714Y-96343095D01*
X76303095Y-96485952D01*
X75731666Y-97057380D01*
X76350714Y-97057380D01*
G04 #@! TO.C,C3*
X75398333Y-85542142D02*
X75350714Y-85589761D01*
X75207857Y-85637380D01*
X75112619Y-85637380D01*
X74969761Y-85589761D01*
X74874523Y-85494523D01*
X74826904Y-85399285D01*
X74779285Y-85208809D01*
X74779285Y-85065952D01*
X74826904Y-84875476D01*
X74874523Y-84780238D01*
X74969761Y-84685000D01*
X75112619Y-84637380D01*
X75207857Y-84637380D01*
X75350714Y-84685000D01*
X75398333Y-84732619D01*
X75731666Y-84637380D02*
X76350714Y-84637380D01*
X76017380Y-85018333D01*
X76160238Y-85018333D01*
X76255476Y-85065952D01*
X76303095Y-85113571D01*
X76350714Y-85208809D01*
X76350714Y-85446904D01*
X76303095Y-85542142D01*
X76255476Y-85589761D01*
X76160238Y-85637380D01*
X75874523Y-85637380D01*
X75779285Y-85589761D01*
X75731666Y-85542142D01*
G04 #@! TO.C,C4*
X122616142Y-124496666D02*
X122663761Y-124544285D01*
X122711380Y-124687142D01*
X122711380Y-124782380D01*
X122663761Y-124925238D01*
X122568523Y-125020476D01*
X122473285Y-125068095D01*
X122282809Y-125115714D01*
X122139952Y-125115714D01*
X121949476Y-125068095D01*
X121854238Y-125020476D01*
X121759000Y-124925238D01*
X121711380Y-124782380D01*
X121711380Y-124687142D01*
X121759000Y-124544285D01*
X121806619Y-124496666D01*
X122044714Y-123639523D02*
X122711380Y-123639523D01*
X121663761Y-123877619D02*
X122378047Y-124115714D01*
X122378047Y-123496666D01*
G04 #@! TO.C,C5*
X117308333Y-130532142D02*
X117260714Y-130579761D01*
X117117857Y-130627380D01*
X117022619Y-130627380D01*
X116879761Y-130579761D01*
X116784523Y-130484523D01*
X116736904Y-130389285D01*
X116689285Y-130198809D01*
X116689285Y-130055952D01*
X116736904Y-129865476D01*
X116784523Y-129770238D01*
X116879761Y-129675000D01*
X117022619Y-129627380D01*
X117117857Y-129627380D01*
X117260714Y-129675000D01*
X117308333Y-129722619D01*
X118213095Y-129627380D02*
X117736904Y-129627380D01*
X117689285Y-130103571D01*
X117736904Y-130055952D01*
X117832142Y-130008333D01*
X118070238Y-130008333D01*
X118165476Y-130055952D01*
X118213095Y-130103571D01*
X118260714Y-130198809D01*
X118260714Y-130436904D01*
X118213095Y-130532142D01*
X118165476Y-130579761D01*
X118070238Y-130627380D01*
X117832142Y-130627380D01*
X117736904Y-130579761D01*
X117689285Y-130532142D01*
G04 #@! TO.C,C6*
X114996142Y-124496666D02*
X115043761Y-124544285D01*
X115091380Y-124687142D01*
X115091380Y-124782380D01*
X115043761Y-124925238D01*
X114948523Y-125020476D01*
X114853285Y-125068095D01*
X114662809Y-125115714D01*
X114519952Y-125115714D01*
X114329476Y-125068095D01*
X114234238Y-125020476D01*
X114139000Y-124925238D01*
X114091380Y-124782380D01*
X114091380Y-124687142D01*
X114139000Y-124544285D01*
X114186619Y-124496666D01*
X114091380Y-123639523D02*
X114091380Y-123830000D01*
X114139000Y-123925238D01*
X114186619Y-123972857D01*
X114329476Y-124068095D01*
X114519952Y-124115714D01*
X114900904Y-124115714D01*
X114996142Y-124068095D01*
X115043761Y-124020476D01*
X115091380Y-123925238D01*
X115091380Y-123734761D01*
X115043761Y-123639523D01*
X114996142Y-123591904D01*
X114900904Y-123544285D01*
X114662809Y-123544285D01*
X114567571Y-123591904D01*
X114519952Y-123639523D01*
X114472333Y-123734761D01*
X114472333Y-123925238D01*
X114519952Y-124020476D01*
X114567571Y-124068095D01*
X114662809Y-124115714D01*
G04 #@! TO.C,D1*
X71983404Y-102312380D02*
X71983404Y-101312380D01*
X72221500Y-101312380D01*
X72364357Y-101360000D01*
X72459595Y-101455238D01*
X72507214Y-101550476D01*
X72554833Y-101740952D01*
X72554833Y-101883809D01*
X72507214Y-102074285D01*
X72459595Y-102169523D01*
X72364357Y-102264761D01*
X72221500Y-102312380D01*
X71983404Y-102312380D01*
X73507214Y-102312380D02*
X72935785Y-102312380D01*
X73221500Y-102312380D02*
X73221500Y-101312380D01*
X73126261Y-101455238D01*
X73031023Y-101550476D01*
X72935785Y-101598095D01*
G04 #@! TO.C,D2*
X71983404Y-106757380D02*
X71983404Y-105757380D01*
X72221500Y-105757380D01*
X72364357Y-105805000D01*
X72459595Y-105900238D01*
X72507214Y-105995476D01*
X72554833Y-106185952D01*
X72554833Y-106328809D01*
X72507214Y-106519285D01*
X72459595Y-106614523D01*
X72364357Y-106709761D01*
X72221500Y-106757380D01*
X71983404Y-106757380D01*
X72935785Y-105852619D02*
X72983404Y-105805000D01*
X73078642Y-105757380D01*
X73316738Y-105757380D01*
X73411976Y-105805000D01*
X73459595Y-105852619D01*
X73507214Y-105947857D01*
X73507214Y-106043095D01*
X73459595Y-106185952D01*
X72888166Y-106757380D01*
X73507214Y-106757380D01*
G04 #@! TO.C,D3*
X71983404Y-111202380D02*
X71983404Y-110202380D01*
X72221500Y-110202380D01*
X72364357Y-110250000D01*
X72459595Y-110345238D01*
X72507214Y-110440476D01*
X72554833Y-110630952D01*
X72554833Y-110773809D01*
X72507214Y-110964285D01*
X72459595Y-111059523D01*
X72364357Y-111154761D01*
X72221500Y-111202380D01*
X71983404Y-111202380D01*
X72888166Y-110202380D02*
X73507214Y-110202380D01*
X73173880Y-110583333D01*
X73316738Y-110583333D01*
X73411976Y-110630952D01*
X73459595Y-110678571D01*
X73507214Y-110773809D01*
X73507214Y-111011904D01*
X73459595Y-111107142D01*
X73411976Y-111154761D01*
X73316738Y-111202380D01*
X73031023Y-111202380D01*
X72935785Y-111154761D01*
X72888166Y-111107142D01*
G04 #@! TO.C,D4*
X71983404Y-115647380D02*
X71983404Y-114647380D01*
X72221500Y-114647380D01*
X72364357Y-114695000D01*
X72459595Y-114790238D01*
X72507214Y-114885476D01*
X72554833Y-115075952D01*
X72554833Y-115218809D01*
X72507214Y-115409285D01*
X72459595Y-115504523D01*
X72364357Y-115599761D01*
X72221500Y-115647380D01*
X71983404Y-115647380D01*
X73411976Y-114980714D02*
X73411976Y-115647380D01*
X73173880Y-114599761D02*
X72935785Y-115314047D01*
X73554833Y-115314047D01*
G04 #@! TO.C,D5*
X71983404Y-120092380D02*
X71983404Y-119092380D01*
X72221500Y-119092380D01*
X72364357Y-119140000D01*
X72459595Y-119235238D01*
X72507214Y-119330476D01*
X72554833Y-119520952D01*
X72554833Y-119663809D01*
X72507214Y-119854285D01*
X72459595Y-119949523D01*
X72364357Y-120044761D01*
X72221500Y-120092380D01*
X71983404Y-120092380D01*
X73459595Y-119092380D02*
X72983404Y-119092380D01*
X72935785Y-119568571D01*
X72983404Y-119520952D01*
X73078642Y-119473333D01*
X73316738Y-119473333D01*
X73411976Y-119520952D01*
X73459595Y-119568571D01*
X73507214Y-119663809D01*
X73507214Y-119901904D01*
X73459595Y-119997142D01*
X73411976Y-120044761D01*
X73316738Y-120092380D01*
X73078642Y-120092380D01*
X72983404Y-120044761D01*
X72935785Y-119997142D01*
G04 #@! TO.C,J1*
X143872380Y-128873333D02*
X144586666Y-128873333D01*
X144729523Y-128920952D01*
X144824761Y-129016190D01*
X144872380Y-129159047D01*
X144872380Y-129254285D01*
X144872380Y-127873333D02*
X144872380Y-128444761D01*
X144872380Y-128159047D02*
X143872380Y-128159047D01*
X144015238Y-128254285D01*
X144110476Y-128349523D01*
X144158095Y-128444761D01*
G04 #@! TO.C,L1*
X131383380Y-131611666D02*
X131383380Y-132087857D01*
X130383380Y-132087857D01*
X131383380Y-130754523D02*
X131383380Y-131325952D01*
X131383380Y-131040238D02*
X130383380Y-131040238D01*
X130526238Y-131135476D01*
X130621476Y-131230714D01*
X130669095Y-131325952D01*
G04 #@! TO.C,R1*
X130161380Y-124496666D02*
X129685190Y-124830000D01*
X130161380Y-125068095D02*
X129161380Y-125068095D01*
X129161380Y-124687142D01*
X129209000Y-124591904D01*
X129256619Y-124544285D01*
X129351857Y-124496666D01*
X129494714Y-124496666D01*
X129589952Y-124544285D01*
X129637571Y-124591904D01*
X129685190Y-124687142D01*
X129685190Y-125068095D01*
X130161380Y-123544285D02*
X130161380Y-124115714D01*
X130161380Y-123830000D02*
X129161380Y-123830000D01*
X129304238Y-123925238D01*
X129399476Y-124020476D01*
X129447095Y-124115714D01*
G04 #@! TO.C,R2*
X78703333Y-106412380D02*
X78370000Y-105936190D01*
X78131904Y-106412380D02*
X78131904Y-105412380D01*
X78512857Y-105412380D01*
X78608095Y-105460000D01*
X78655714Y-105507619D01*
X78703333Y-105602857D01*
X78703333Y-105745714D01*
X78655714Y-105840952D01*
X78608095Y-105888571D01*
X78512857Y-105936190D01*
X78131904Y-105936190D01*
X79084285Y-105507619D02*
X79131904Y-105460000D01*
X79227142Y-105412380D01*
X79465238Y-105412380D01*
X79560476Y-105460000D01*
X79608095Y-105507619D01*
X79655714Y-105602857D01*
X79655714Y-105698095D01*
X79608095Y-105840952D01*
X79036666Y-106412380D01*
X79655714Y-106412380D01*
G04 #@! TO.C,R3*
X78703333Y-110857380D02*
X78370000Y-110381190D01*
X78131904Y-110857380D02*
X78131904Y-109857380D01*
X78512857Y-109857380D01*
X78608095Y-109905000D01*
X78655714Y-109952619D01*
X78703333Y-110047857D01*
X78703333Y-110190714D01*
X78655714Y-110285952D01*
X78608095Y-110333571D01*
X78512857Y-110381190D01*
X78131904Y-110381190D01*
X79036666Y-109857380D02*
X79655714Y-109857380D01*
X79322380Y-110238333D01*
X79465238Y-110238333D01*
X79560476Y-110285952D01*
X79608095Y-110333571D01*
X79655714Y-110428809D01*
X79655714Y-110666904D01*
X79608095Y-110762142D01*
X79560476Y-110809761D01*
X79465238Y-110857380D01*
X79179523Y-110857380D01*
X79084285Y-110809761D01*
X79036666Y-110762142D01*
G04 #@! TO.C,R4*
X78703333Y-115302380D02*
X78370000Y-114826190D01*
X78131904Y-115302380D02*
X78131904Y-114302380D01*
X78512857Y-114302380D01*
X78608095Y-114350000D01*
X78655714Y-114397619D01*
X78703333Y-114492857D01*
X78703333Y-114635714D01*
X78655714Y-114730952D01*
X78608095Y-114778571D01*
X78512857Y-114826190D01*
X78131904Y-114826190D01*
X79560476Y-114635714D02*
X79560476Y-115302380D01*
X79322380Y-114254761D02*
X79084285Y-114969047D01*
X79703333Y-114969047D01*
G04 #@! TO.C,R5*
X78703333Y-119747380D02*
X78370000Y-119271190D01*
X78131904Y-119747380D02*
X78131904Y-118747380D01*
X78512857Y-118747380D01*
X78608095Y-118795000D01*
X78655714Y-118842619D01*
X78703333Y-118937857D01*
X78703333Y-119080714D01*
X78655714Y-119175952D01*
X78608095Y-119223571D01*
X78512857Y-119271190D01*
X78131904Y-119271190D01*
X79608095Y-118747380D02*
X79131904Y-118747380D01*
X79084285Y-119223571D01*
X79131904Y-119175952D01*
X79227142Y-119128333D01*
X79465238Y-119128333D01*
X79560476Y-119175952D01*
X79608095Y-119223571D01*
X79655714Y-119318809D01*
X79655714Y-119556904D01*
X79608095Y-119652142D01*
X79560476Y-119699761D01*
X79465238Y-119747380D01*
X79227142Y-119747380D01*
X79131904Y-119699761D01*
X79084285Y-119652142D01*
G04 #@! TO.C,R6*
X78703333Y-124192380D02*
X78370000Y-123716190D01*
X78131904Y-124192380D02*
X78131904Y-123192380D01*
X78512857Y-123192380D01*
X78608095Y-123240000D01*
X78655714Y-123287619D01*
X78703333Y-123382857D01*
X78703333Y-123525714D01*
X78655714Y-123620952D01*
X78608095Y-123668571D01*
X78512857Y-123716190D01*
X78131904Y-123716190D01*
X79560476Y-123192380D02*
X79370000Y-123192380D01*
X79274761Y-123240000D01*
X79227142Y-123287619D01*
X79131904Y-123430476D01*
X79084285Y-123620952D01*
X79084285Y-124001904D01*
X79131904Y-124097142D01*
X79179523Y-124144761D01*
X79274761Y-124192380D01*
X79465238Y-124192380D01*
X79560476Y-124144761D01*
X79608095Y-124097142D01*
X79655714Y-124001904D01*
X79655714Y-123763809D01*
X79608095Y-123668571D01*
X79560476Y-123620952D01*
X79465238Y-123573333D01*
X79274761Y-123573333D01*
X79179523Y-123620952D01*
X79131904Y-123668571D01*
X79084285Y-123763809D01*
G04 #@! TO.C,R7*
X124928333Y-130627380D02*
X124595000Y-130151190D01*
X124356904Y-130627380D02*
X124356904Y-129627380D01*
X124737857Y-129627380D01*
X124833095Y-129675000D01*
X124880714Y-129722619D01*
X124928333Y-129817857D01*
X124928333Y-129960714D01*
X124880714Y-130055952D01*
X124833095Y-130103571D01*
X124737857Y-130151190D01*
X124356904Y-130151190D01*
X125261666Y-129627380D02*
X125928333Y-129627380D01*
X125499761Y-130627380D01*
G04 #@! TO.C,R8*
X118901380Y-124496666D02*
X118425190Y-124830000D01*
X118901380Y-125068095D02*
X117901380Y-125068095D01*
X117901380Y-124687142D01*
X117949000Y-124591904D01*
X117996619Y-124544285D01*
X118091857Y-124496666D01*
X118234714Y-124496666D01*
X118329952Y-124544285D01*
X118377571Y-124591904D01*
X118425190Y-124687142D01*
X118425190Y-125068095D01*
X118329952Y-123925238D02*
X118282333Y-124020476D01*
X118234714Y-124068095D01*
X118139476Y-124115714D01*
X118091857Y-124115714D01*
X117996619Y-124068095D01*
X117949000Y-124020476D01*
X117901380Y-123925238D01*
X117901380Y-123734761D01*
X117949000Y-123639523D01*
X117996619Y-123591904D01*
X118091857Y-123544285D01*
X118139476Y-123544285D01*
X118234714Y-123591904D01*
X118282333Y-123639523D01*
X118329952Y-123734761D01*
X118329952Y-123925238D01*
X118377571Y-124020476D01*
X118425190Y-124068095D01*
X118520428Y-124115714D01*
X118710904Y-124115714D01*
X118806142Y-124068095D01*
X118853761Y-124020476D01*
X118901380Y-123925238D01*
X118901380Y-123734761D01*
X118853761Y-123639523D01*
X118806142Y-123591904D01*
X118710904Y-123544285D01*
X118520428Y-123544285D01*
X118425190Y-123591904D01*
X118377571Y-123639523D01*
X118329952Y-123734761D01*
G04 #@! TO.C,R9*
X121118333Y-133167380D02*
X120785000Y-132691190D01*
X120546904Y-133167380D02*
X120546904Y-132167380D01*
X120927857Y-132167380D01*
X121023095Y-132215000D01*
X121070714Y-132262619D01*
X121118333Y-132357857D01*
X121118333Y-132500714D01*
X121070714Y-132595952D01*
X121023095Y-132643571D01*
X120927857Y-132691190D01*
X120546904Y-132691190D01*
X121594523Y-133167380D02*
X121785000Y-133167380D01*
X121880238Y-133119761D01*
X121927857Y-133072142D01*
X122023095Y-132929285D01*
X122070714Y-132738809D01*
X122070714Y-132357857D01*
X122023095Y-132262619D01*
X121975476Y-132215000D01*
X121880238Y-132167380D01*
X121689761Y-132167380D01*
X121594523Y-132215000D01*
X121546904Y-132262619D01*
X121499285Y-132357857D01*
X121499285Y-132595952D01*
X121546904Y-132691190D01*
X121594523Y-132738809D01*
X121689761Y-132786428D01*
X121880238Y-132786428D01*
X121975476Y-132738809D01*
X122023095Y-132691190D01*
X122070714Y-132595952D01*
G04 #@! TO.C,U1*
X131022380Y-129031904D02*
X131831904Y-129031904D01*
X131927142Y-128984285D01*
X131974761Y-128936666D01*
X132022380Y-128841428D01*
X132022380Y-128650952D01*
X131974761Y-128555714D01*
X131927142Y-128508095D01*
X131831904Y-128460476D01*
X131022380Y-128460476D01*
X132022380Y-127460476D02*
X132022380Y-128031904D01*
X132022380Y-127746190D02*
X131022380Y-127746190D01*
X131165238Y-127841428D01*
X131260476Y-127936666D01*
X131308095Y-128031904D01*
G04 #@! TO.C,J2*
X79676666Y-129522380D02*
X79676666Y-130236666D01*
X79629047Y-130379523D01*
X79533809Y-130474761D01*
X79390952Y-130522380D01*
X79295714Y-130522380D01*
X80105238Y-129617619D02*
X80152857Y-129570000D01*
X80248095Y-129522380D01*
X80486190Y-129522380D01*
X80581428Y-129570000D01*
X80629047Y-129617619D01*
X80676666Y-129712857D01*
X80676666Y-129808095D01*
X80629047Y-129950952D01*
X80057619Y-130522380D01*
X80676666Y-130522380D01*
G04 #@! TO.C,J3*
X86026666Y-84752380D02*
X86026666Y-85466666D01*
X85979047Y-85609523D01*
X85883809Y-85704761D01*
X85740952Y-85752380D01*
X85645714Y-85752380D01*
X86407619Y-84752380D02*
X87026666Y-84752380D01*
X86693333Y-85133333D01*
X86836190Y-85133333D01*
X86931428Y-85180952D01*
X86979047Y-85228571D01*
X87026666Y-85323809D01*
X87026666Y-85561904D01*
X86979047Y-85657142D01*
X86931428Y-85704761D01*
X86836190Y-85752380D01*
X86550476Y-85752380D01*
X86455238Y-85704761D01*
X86407619Y-85657142D01*
G04 #@! TO.C,J4*
X111426666Y-84752380D02*
X111426666Y-85466666D01*
X111379047Y-85609523D01*
X111283809Y-85704761D01*
X111140952Y-85752380D01*
X111045714Y-85752380D01*
X112331428Y-85085714D02*
X112331428Y-85752380D01*
X112093333Y-84704761D02*
X111855238Y-85419047D01*
X112474285Y-85419047D01*
G04 #@! TO.C,C8*
X140803333Y-106952142D02*
X140755714Y-106999761D01*
X140612857Y-107047380D01*
X140517619Y-107047380D01*
X140374761Y-106999761D01*
X140279523Y-106904523D01*
X140231904Y-106809285D01*
X140184285Y-106618809D01*
X140184285Y-106475952D01*
X140231904Y-106285476D01*
X140279523Y-106190238D01*
X140374761Y-106095000D01*
X140517619Y-106047380D01*
X140612857Y-106047380D01*
X140755714Y-106095000D01*
X140803333Y-106142619D01*
X141374761Y-106475952D02*
X141279523Y-106428333D01*
X141231904Y-106380714D01*
X141184285Y-106285476D01*
X141184285Y-106237857D01*
X141231904Y-106142619D01*
X141279523Y-106095000D01*
X141374761Y-106047380D01*
X141565238Y-106047380D01*
X141660476Y-106095000D01*
X141708095Y-106142619D01*
X141755714Y-106237857D01*
X141755714Y-106285476D01*
X141708095Y-106380714D01*
X141660476Y-106428333D01*
X141565238Y-106475952D01*
X141374761Y-106475952D01*
X141279523Y-106523571D01*
X141231904Y-106571190D01*
X141184285Y-106666428D01*
X141184285Y-106856904D01*
X141231904Y-106952142D01*
X141279523Y-106999761D01*
X141374761Y-107047380D01*
X141565238Y-107047380D01*
X141660476Y-106999761D01*
X141708095Y-106952142D01*
X141755714Y-106856904D01*
X141755714Y-106666428D01*
X141708095Y-106571190D01*
X141660476Y-106523571D01*
X141565238Y-106475952D01*
G04 #@! TO.C,R10*
X139562142Y-88802380D02*
X139228809Y-88326190D01*
X138990714Y-88802380D02*
X138990714Y-87802380D01*
X139371666Y-87802380D01*
X139466904Y-87850000D01*
X139514523Y-87897619D01*
X139562142Y-87992857D01*
X139562142Y-88135714D01*
X139514523Y-88230952D01*
X139466904Y-88278571D01*
X139371666Y-88326190D01*
X138990714Y-88326190D01*
X140514523Y-88802380D02*
X139943095Y-88802380D01*
X140228809Y-88802380D02*
X140228809Y-87802380D01*
X140133571Y-87945238D01*
X140038333Y-88040476D01*
X139943095Y-88088095D01*
X141133571Y-87802380D02*
X141228809Y-87802380D01*
X141324047Y-87850000D01*
X141371666Y-87897619D01*
X141419285Y-87992857D01*
X141466904Y-88183333D01*
X141466904Y-88421428D01*
X141419285Y-88611904D01*
X141371666Y-88707142D01*
X141324047Y-88754761D01*
X141228809Y-88802380D01*
X141133571Y-88802380D01*
X141038333Y-88754761D01*
X140990714Y-88707142D01*
X140943095Y-88611904D01*
X140895476Y-88421428D01*
X140895476Y-88183333D01*
X140943095Y-87992857D01*
X140990714Y-87897619D01*
X141038333Y-87850000D01*
X141133571Y-87802380D01*
G04 #@! TO.C,R11*
X139567143Y-95067380D02*
X139233810Y-94591190D01*
X138995715Y-95067380D02*
X138995715Y-94067380D01*
X139376667Y-94067380D01*
X139471905Y-94115000D01*
X139519524Y-94162619D01*
X139567143Y-94257857D01*
X139567143Y-94400714D01*
X139519524Y-94495952D01*
X139471905Y-94543571D01*
X139376667Y-94591190D01*
X138995715Y-94591190D01*
X140519524Y-95067380D02*
X139948096Y-95067380D01*
X140233810Y-95067380D02*
X140233810Y-94067380D01*
X140138572Y-94210238D01*
X140043334Y-94305476D01*
X139948096Y-94353095D01*
X141471905Y-95067380D02*
X140900477Y-95067380D01*
X141186191Y-95067380D02*
X141186191Y-94067380D01*
X141090953Y-94210238D01*
X140995715Y-94305476D01*
X140900477Y-94353095D01*
G04 #@! TO.C,J5*
X146986666Y-105707380D02*
X146986666Y-106421666D01*
X146939047Y-106564523D01*
X146843809Y-106659761D01*
X146700952Y-106707380D01*
X146605714Y-106707380D01*
X147939047Y-105707380D02*
X147462857Y-105707380D01*
X147415238Y-106183571D01*
X147462857Y-106135952D01*
X147558095Y-106088333D01*
X147796190Y-106088333D01*
X147891428Y-106135952D01*
X147939047Y-106183571D01*
X147986666Y-106278809D01*
X147986666Y-106516904D01*
X147939047Y-106612142D01*
X147891428Y-106659761D01*
X147796190Y-106707380D01*
X147558095Y-106707380D01*
X147462857Y-106659761D01*
X147415238Y-106612142D01*
G04 #@! TO.C,J6*
X146986666Y-90467380D02*
X146986666Y-91181666D01*
X146939047Y-91324523D01*
X146843809Y-91419761D01*
X146700952Y-91467380D01*
X146605714Y-91467380D01*
X147891428Y-90467380D02*
X147700952Y-90467380D01*
X147605714Y-90515000D01*
X147558095Y-90562619D01*
X147462857Y-90705476D01*
X147415238Y-90895952D01*
X147415238Y-91276904D01*
X147462857Y-91372142D01*
X147510476Y-91419761D01*
X147605714Y-91467380D01*
X147796190Y-91467380D01*
X147891428Y-91419761D01*
X147939047Y-91372142D01*
X147986666Y-91276904D01*
X147986666Y-91038809D01*
X147939047Y-90943571D01*
X147891428Y-90895952D01*
X147796190Y-90848333D01*
X147605714Y-90848333D01*
X147510476Y-90895952D01*
X147462857Y-90943571D01*
X147415238Y-91038809D01*
G04 #@! TD*
M02*
