M48
;DRILL file {KiCad 5.0.2-bee76a0~70~ubuntu18.10.1} date dim. 28 avril 2019 23:29:25 CEST
;FORMAT={3:3/ absolute / metric / suppress leading zeros}
FMAT,2
METRIC,TZ
T1C0.300
T2C0.700
T3C0.750
T4C1.000
%
G90
G05
T1
X83185Y-134620
X116205Y-113665
X117475Y-130429
X118237Y-124333
X131318Y-124968
X131318Y-128778
X133350Y-107950
X133350Y-113070
X133350Y-116205
X133350Y-127635
X133350Y-128905
X133858Y-128270
X134239Y-127635
X134239Y-128905
X135128Y-127635
X135128Y-128905
X135255Y-104775
X135255Y-107950
X135509Y-128270
X135890Y-127635
X135890Y-128905
X136525Y-105410
X137795Y-102870
X138176Y-126746
X142240Y-99695
T2
X80010Y-128270
T3
X147320Y-127540
X147320Y-129540
T4
X111760Y-87630
X111760Y-90170
X111760Y-92710
X111760Y-95250
X111760Y-97790
X111760Y-100330
X111760Y-102870
X111760Y-105410
X111760Y-107950
X111760Y-110490
X111760Y-113030
X111760Y-115570
X111760Y-118110
X111760Y-120650
X111760Y-123190
X111760Y-125730
X111760Y-128270
X111760Y-130810
X111760Y-133350
X146050Y-108585
X146050Y-111125
X146050Y-113665
X146050Y-116205
X146050Y-118745
X146050Y-121285
X148590Y-108585
X148590Y-111125
X148590Y-113665
X148590Y-116205
X148590Y-118745
X148590Y-121285
X86360Y-87630
X86360Y-90170
X86360Y-92710
X86360Y-95250
X86360Y-97790
X86360Y-100330
X86360Y-102870
X86360Y-105410
X86360Y-107950
X86360Y-110490
X86360Y-113030
X86360Y-115570
X86360Y-118110
X86360Y-120650
X86360Y-123190
X86360Y-125730
X86360Y-128270
X86360Y-130810
X86360Y-133350
X146050Y-93345
X146050Y-95885
X146050Y-98425
X146050Y-100965
X148590Y-93345
X148590Y-95885
X148590Y-98425
X148590Y-100965
T0
M30
