G04 #@! TF.GenerationSoftware,KiCad,Pcbnew,5.0.2-bee76a0~70~ubuntu18.10.1*
G04 #@! TF.CreationDate,2019-04-28T23:28:47+02:00*
G04 #@! TF.ProjectId,carte_RouleMaPoule,63617274-655f-4526-9f75-6c654d61506f,A*
G04 #@! TF.SameCoordinates,Original*
G04 #@! TF.FileFunction,Legend,Bot*
G04 #@! TF.FilePolarity,Positive*
%FSLAX46Y46*%
G04 Gerber Fmt 4.6, Leading zero omitted, Abs format (unit mm)*
G04 Created by KiCad (PCBNEW 5.0.2-bee76a0~70~ubuntu18.10.1) date dim. 28 avril 2019 23:28:47 CEST*
%MOMM*%
%LPD*%
G01*
G04 APERTURE LIST*
%ADD10C,0.120000*%
%ADD11C,0.150000*%
G04 APERTURE END LIST*
D10*
G04 #@! TO.C,R12*
X130535000Y-106012064D02*
X130535000Y-104807936D01*
X132355000Y-106012064D02*
X132355000Y-104807936D01*
G04 #@! TO.C,C7*
X125431250Y-115643750D02*
X124643750Y-115643750D01*
X125037500Y-116037500D02*
X125037500Y-115250000D01*
X120844437Y-115010000D02*
X119780000Y-113945563D01*
X125535563Y-115010000D02*
X126600000Y-113945563D01*
X125535563Y-115010000D02*
X124250000Y-115010000D01*
X120844437Y-115010000D02*
X122130000Y-115010000D01*
X119780000Y-113945563D02*
X119780000Y-108190000D01*
X126600000Y-113945563D02*
X126600000Y-108190000D01*
X126600000Y-108190000D02*
X124250000Y-108190000D01*
X119780000Y-108190000D02*
X122130000Y-108190000D01*
G04 #@! TO.C,C9*
X129815000Y-112232064D02*
X129815000Y-111027936D01*
X127995000Y-112232064D02*
X127995000Y-111027936D01*
G04 #@! TO.C,R13*
X132355000Y-113827936D02*
X132355000Y-115032064D01*
X130535000Y-113827936D02*
X130535000Y-115032064D01*
G04 #@! TO.C,R12*
D11*
X133717380Y-104767142D02*
X133241190Y-104433809D01*
X133717380Y-104195714D02*
X132717380Y-104195714D01*
X132717380Y-104576666D01*
X132765000Y-104671904D01*
X132812619Y-104719523D01*
X132907857Y-104767142D01*
X133050714Y-104767142D01*
X133145952Y-104719523D01*
X133193571Y-104671904D01*
X133241190Y-104576666D01*
X133241190Y-104195714D01*
X133717380Y-105719523D02*
X133717380Y-105148095D01*
X133717380Y-105433809D02*
X132717380Y-105433809D01*
X132860238Y-105338571D01*
X132955476Y-105243333D01*
X133003095Y-105148095D01*
X132812619Y-106100476D02*
X132765000Y-106148095D01*
X132717380Y-106243333D01*
X132717380Y-106481428D01*
X132765000Y-106576666D01*
X132812619Y-106624285D01*
X132907857Y-106671904D01*
X133003095Y-106671904D01*
X133145952Y-106624285D01*
X133717380Y-106052857D01*
X133717380Y-106671904D01*
G04 #@! TO.C,C7*
X125896666Y-107672142D02*
X125944285Y-107719761D01*
X126087142Y-107767380D01*
X126182380Y-107767380D01*
X126325238Y-107719761D01*
X126420476Y-107624523D01*
X126468095Y-107529285D01*
X126515714Y-107338809D01*
X126515714Y-107195952D01*
X126468095Y-107005476D01*
X126420476Y-106910238D01*
X126325238Y-106815000D01*
X126182380Y-106767380D01*
X126087142Y-106767380D01*
X125944285Y-106815000D01*
X125896666Y-106862619D01*
X125563333Y-106767380D02*
X124896666Y-106767380D01*
X125325238Y-107767380D01*
G04 #@! TO.C,C9*
X131082142Y-110323333D02*
X131129761Y-110275714D01*
X131177380Y-110132857D01*
X131177380Y-110037619D01*
X131129761Y-109894761D01*
X131034523Y-109799523D01*
X130939285Y-109751904D01*
X130748809Y-109704285D01*
X130605952Y-109704285D01*
X130415476Y-109751904D01*
X130320238Y-109799523D01*
X130225000Y-109894761D01*
X130177380Y-110037619D01*
X130177380Y-110132857D01*
X130225000Y-110275714D01*
X130272619Y-110323333D01*
X131177380Y-110799523D02*
X131177380Y-110990000D01*
X131129761Y-111085238D01*
X131082142Y-111132857D01*
X130939285Y-111228095D01*
X130748809Y-111275714D01*
X130367857Y-111275714D01*
X130272619Y-111228095D01*
X130225000Y-111180476D01*
X130177380Y-111085238D01*
X130177380Y-110894761D01*
X130225000Y-110799523D01*
X130272619Y-110751904D01*
X130367857Y-110704285D01*
X130605952Y-110704285D01*
X130701190Y-110751904D01*
X130748809Y-110799523D01*
X130796428Y-110894761D01*
X130796428Y-111085238D01*
X130748809Y-111180476D01*
X130701190Y-111228095D01*
X130605952Y-111275714D01*
G04 #@! TO.C,R13*
X130077380Y-114927142D02*
X129601190Y-114593809D01*
X130077380Y-114355714D02*
X129077380Y-114355714D01*
X129077380Y-114736666D01*
X129125000Y-114831904D01*
X129172619Y-114879523D01*
X129267857Y-114927142D01*
X129410714Y-114927142D01*
X129505952Y-114879523D01*
X129553571Y-114831904D01*
X129601190Y-114736666D01*
X129601190Y-114355714D01*
X130077380Y-115879523D02*
X130077380Y-115308095D01*
X130077380Y-115593809D02*
X129077380Y-115593809D01*
X129220238Y-115498571D01*
X129315476Y-115403333D01*
X129363095Y-115308095D01*
X129077380Y-116212857D02*
X129077380Y-116831904D01*
X129458333Y-116498571D01*
X129458333Y-116641428D01*
X129505952Y-116736666D01*
X129553571Y-116784285D01*
X129648809Y-116831904D01*
X129886904Y-116831904D01*
X129982142Y-116784285D01*
X130029761Y-116736666D01*
X130077380Y-116641428D01*
X130077380Y-116355714D01*
X130029761Y-116260476D01*
X129982142Y-116212857D01*
G04 #@! TD*
M02*
